<svg width="43" height="56" viewBox="0 0 43 56" fill="none" xmlns="http://www.w3.org/2000/svg">
<path d="M35.1719 2.95718L34.6395 1.7628C34.2822 0.961194 33.3427 0.601023 32.5411 0.958351L24.4543 4.56313C24.0009 4.76515 23.6274 5.11197 23.3922 5.54915L18.6974 14.2762L22.648 16.4014L26.98 8.34882L34.3674 5.05565C35.169 4.69832 35.5292 3.75879 35.1719 2.95718Z" fill="#FF6F7F"/>
<path d="M5.59119 40.2155L6.47494 49.275C6.80131 52.6249 9.61739 55.1797 12.983 55.1797H29.6843C33.0499 55.1797 35.866 52.6249 36.1923 49.275L36.9179 41.8371L33.5865 40.2341H25.3549L14.4746 35.8805L5.59119 40.2155Z" fill="#FF6F7F"/>
<path d="M4.78919 32.005L3.97729 23.679L21.3336 18.362L38.6899 23.679L37.4125 36.7702L33.5865 40.2343H25.355L4.78919 32.005Z" fill="#FF6F7F"/>
<path d="M8.51931 24.7836C8.51931 23.932 8.5565 23.089 8.62628 22.2549L3.97729 23.6791L4.78929 32.0051L9.88518 34.0442C8.99728 31.0255 8.51931 27.9038 8.51931 24.7836Z" fill="#FC5C70"/>
<path d="M41.6661 19.4867L40.7782 16.9451C39.962 14.6091 37.758 13.0445 35.2835 13.0445H7.38383C4.90933 13.0445 2.70531 14.6091 1.88915 16.9451L1.00125 19.4867C0.285279 21.5362 1.80647 23.679 3.97745 23.679H38.6901C40.8608 23.679 42.3821 21.5362 41.6661 19.4867Z" fill="#DCDCDC"/>
<path d="M11.1077 37.5236L5.59106 40.2156L6.47481 49.275C6.80119 52.6249 9.61727 55.1797 12.9828 55.1797H26.4181C19.5881 51.3352 14.1272 44.8884 11.1077 37.5236Z" fill="#FC5C70"/>
<path d="M37.4125 36.7702L36.9179 41.8371C23.9477 46.5407 18.3323 37.7078 5.59101 40.2154L4.78918 32.005C18.8484 26.9067 22.7377 42.4013 37.4125 36.7702Z" fill="#DCDCDC"/>
<path d="M9.13957 31.0106C7.79634 31.125 6.35609 31.4368 4.78918 32.005L5.59101 40.2156C8.00065 39.7413 10.1551 39.6732 12.153 39.8418C10.7677 37.0333 9.74179 34.0556 9.13957 31.0106Z" fill="#CECECC"/>
<path d="M10.9047 13.0445H7.38383C4.90933 13.0445 2.70531 14.6091 1.88915 16.9451L1.00125 19.4867C0.285279 21.5362 1.80647 23.679 3.97734 23.679H8.54178C8.67806 19.9247 9.50526 16.3415 10.9047 13.0445Z" fill="#CECECC"/>
<path d="M11.9226 16.4359C11.4696 16.4359 11.1023 16.8032 11.1023 17.2562V19.0646C11.1023 19.5176 11.4696 19.8849 11.9226 19.8849C12.3756 19.8849 12.7429 19.5176 12.7429 19.0646V17.2562C12.7429 16.8032 12.3756 16.4359 11.9226 16.4359Z" fill="black"/>
<path d="M30.7445 16.4359C30.2915 16.4359 29.9242 16.8032 29.9242 17.2562V19.0646C29.9242 19.5176 30.2915 19.8849 30.7445 19.8849C31.1975 19.8849 31.5648 19.5176 31.5648 19.0646V17.2562C31.5648 16.8032 31.1975 16.4359 30.7445 16.4359Z" fill="black"/>
<path d="M24.3537 18.3923C24.0123 18.0947 23.494 18.1302 23.1964 18.4718C22.7262 19.0113 22.0473 19.3208 21.3337 19.3208C20.62 19.3208 19.9411 19.0113 19.4709 18.4717C19.1732 18.1302 18.6551 18.0947 18.3135 18.3922C17.9719 18.6899 17.9364 19.208 18.234 19.5496C19.0159 20.4468 20.1456 20.9613 21.3336 20.9613C22.5216 20.9613 23.6513 20.4467 24.4331 19.5495C24.7309 19.208 24.6953 18.6899 24.3537 18.3923Z" fill="black"/>
<path d="M42.4402 19.2165L41.5523 16.6749C40.6223 14.0131 38.103 12.2246 35.2833 12.2246H25.8267L27.5698 8.98445L34.7013 5.80535C35.9176 5.26318 36.4633 3.8401 35.9211 2.62363L35.3887 1.42937C34.8465 0.213116 33.4235 -0.332665 32.207 0.209616L24.1205 3.8144C23.5045 4.08882 22.9893 4.56712 22.6698 5.16102L18.8699 12.2245H7.38391C4.56411 12.2245 2.04488 14.013 1.11486 16.6748L0.226846 19.2164C-0.599483 21.5819 0.929689 23.9986 3.22645 24.4294C3.63606 28.6269 4.64242 38.9393 5.02939 42.9045C5.07336 43.3553 5.47433 43.6863 5.92539 43.6412C6.37635 43.5973 6.70622 43.1961 6.66214 42.7452L6.48113 40.8894C17.9444 38.9977 23.7673 46.8033 35.9784 43.0185L35.3757 49.1954C35.0889 52.1393 32.6421 54.3593 29.6843 54.3593H12.9829C10.025 54.3593 7.57816 52.1393 7.29138 49.1954L6.98228 46.0266C6.93831 45.5758 6.53745 45.2451 6.08628 45.2898C5.63533 45.3338 5.30545 45.735 5.34953 46.1858L5.65863 49.3545C6.02766 53.1431 9.17645 56 12.9829 56H29.6842C33.4906 56 36.6395 53.1431 37.0086 49.3547C37.1848 47.5491 38.4921 34.1512 38.7283 31.7306C38.7722 31.2797 38.4425 30.8785 37.9915 30.8345C37.5395 30.7901 37.1394 31.1204 37.0954 31.5713L36.6458 36.179C26.3799 39.8478 22.4456 32.6082 13.739 30.5406C11.1525 29.9251 8.45513 29.9895 5.50572 30.9002L4.88163 24.4995H37.7855L37.4157 28.2899C37.3717 28.7407 37.7015 29.142 38.1524 29.186C38.6041 29.23 39.0044 28.9001 39.0485 28.4493L39.4407 24.4294C41.7373 23.9987 43.2668 21.5823 42.4402 19.2165ZM24.1146 5.93824C24.2629 5.66251 24.5021 5.44037 24.7883 5.31284L32.875 1.70805C33.2629 1.53513 33.7171 1.70904 33.8902 2.09732L34.4226 3.29169C34.5955 3.67976 34.4216 4.13377 34.0333 4.30691L26.646 7.60009C26.4802 7.67402 26.3436 7.80079 26.2577 7.9607L23.9638 12.2246H20.7329L24.1146 5.93824ZM16.6621 33.3081C23.985 36.6562 27.8599 40.7231 36.471 37.9711L36.1524 41.2354C23.9821 45.3805 18.5264 37.281 6.32133 39.2515L5.66869 32.5697C9.60181 31.3151 12.8278 31.553 16.6621 33.3081ZM38.6904 22.859C38.6902 22.859 38.69 22.859 38.6898 22.859H3.97742C3.97721 22.859 3.97699 22.859 3.97677 22.859C2.36885 22.8586 1.24545 21.2751 1.7756 19.7576L2.66361 17.216C3.36383 15.2117 5.26083 13.8652 7.38391 13.8652H35.2833C37.4064 13.8652 39.3034 15.2118 40.0036 17.216L40.8916 19.7576C41.4217 21.2755 40.298 22.8586 38.6904 22.859Z" fill="black"/>
</svg>
