<svg width="60" height="58" viewBox="0 0 60 58" fill="none" xmlns="http://www.w3.org/2000/svg">
<path d="M26.709 57.0157H19.2427C19.2211 57.0157 19.1997 57.0157 19.1781 57.0145L13.0022 45.6477L15.5406 34.2808H24.8634L29.9999 45.6482L26.709 57.0157Z" fill="#F9ED80"/>
<path d="M44.4593 34.2807L46.6492 45.6482L40.8217 57.0145C40.8001 57.0157 40.7787 57.0157 40.7571 57.0157H33.2907L30 45.6482L35.1366 34.2807H44.4593Z" fill="#F9ED80"/>
<path d="M53.1737 34.2807L48.9612 50.6562C48.0037 54.3787 44.6602 56.9869 40.8218 57.0145L44.4593 34.2807H53.1737Z" fill="#9AE0EB"/>
<path d="M35.1366 34.2807L33.2909 57.0157H26.7092L24.8635 34.2807H35.1366Z" fill="#9AE0EB"/>
<path d="M14.0623 40.9005L13.0022 45.6475L19.1781 57.0145C19.1997 57.0156 19.2211 57.0156 19.2427 57.0156H24.4098C19.6464 52.7166 16.0265 47.1748 14.0623 40.9005Z" fill="#F9D888"/>
<path d="M19.1782 57.0145C15.3398 56.9869 11.9964 54.3787 11.0388 50.6562L6.82629 34.2807H15.5406L19.1782 57.0145Z" fill="#9AE0EB"/>
<path d="M12.6566 34.2807H6.82629L11.0388 50.6562C11.9964 54.3787 15.3398 56.9869 19.1782 57.0145L17.9469 49.3195C15.1506 44.8636 13.2949 39.7584 12.6566 34.2807Z" fill="#64D1E1"/>
<path d="M55.6766 23.2844L55.6676 23.2728L55.6715 23.2495C56.6998 18.1079 53.7353 13.0225 48.7836 11.3656V11.363C47.1359 6.44615 42.069 3.43467 36.8765 4.48291C36.8454 4.46463 34.2962 1.87689 29.9965 1.87689C25.7045 1.87689 23.1474 4.46474 23.1165 4.48291C17.9193 3.43373 12.8559 6.44955 11.2092 11.3629V11.3654C6.25384 13.0236 3.29392 18.1122 4.32142 23.2494L4.32528 23.2726C-0.500262 28.8551 3.62732 37.0224 10.567 37.0224H49.4258C56.4898 37.0225 60.4483 28.6525 55.6766 23.2844Z" fill="#E7886E"/>
<path d="M20.437 21.5607C22.3621 21.5607 23.9227 20.0001 23.9227 18.0749C23.9227 16.1498 22.3621 14.5892 20.437 14.5892C18.5119 14.5892 16.9513 16.1498 16.9513 18.0749C16.9513 20.0001 18.5119 21.5607 20.437 21.5607Z" fill="#FFB3DD"/>
<path d="M12.4078 30.0302C12.4078 20.0542 16.4286 11.018 22.9369 4.45103C17.803 3.50626 12.837 6.50626 11.2092 11.3629V11.3654C6.25384 13.0236 3.29392 18.112 4.32142 23.2494L4.32528 23.2726C-0.500262 28.8551 3.62732 37.0224 10.567 37.0224H13.0826C12.6414 34.7595 12.4078 32.4223 12.4078 30.0302Z" fill="#E27858"/>
<path d="M23.0285 7.95571C24.9536 7.95571 26.5143 6.39509 26.5143 4.46996C26.5143 2.54484 24.9536 0.984222 23.0285 0.984222C21.1034 0.984222 19.5428 2.54484 19.5428 4.46996C19.5428 6.39509 21.1034 7.95571 23.0285 7.95571Z" fill="#FFB3DD"/>
<path d="M39.5632 21.5607C41.4883 21.5607 43.0489 20.0001 43.0489 18.0749C43.0489 16.1498 41.4883 14.5892 39.5632 14.5892C37.6381 14.5892 36.0775 16.1498 36.0775 18.0749C36.0775 20.0001 37.6381 21.5607 39.5632 21.5607Z" fill="#F9ED80"/>
<path d="M36.9715 7.95571C38.8966 7.95571 40.4572 6.39509 40.4572 4.46996C40.4572 2.54484 38.8966 0.984222 36.9715 0.984222C35.0463 0.984222 33.4857 2.54484 33.4857 4.46996C33.4857 6.39509 35.0463 7.95571 36.9715 7.95571Z" fill="#F9ED80"/>
<path d="M48.7995 14.9272C50.7246 14.9272 52.2852 13.3666 52.2852 11.4415C52.2852 9.51634 50.7246 7.95572 48.7995 7.95572C46.8743 7.95572 45.3137 9.51634 45.3137 11.4415C45.3137 13.3666 46.8743 14.9272 48.7995 14.9272Z" fill="#FFB3DD"/>
<path d="M55.6353 26.6601C57.5605 26.6601 59.1211 25.0995 59.1211 23.1744C59.1211 21.2493 57.5605 19.6887 55.6353 19.6887C53.7102 19.6887 52.1496 21.2493 52.1496 23.1744C52.1496 25.0995 53.7102 26.6601 55.6353 26.6601Z" fill="#F9ED80"/>
<path d="M20.6349 7.00266C22.1107 5.20301 23.7558 3.54762 25.5462 2.06074C24.9116 1.39781 24.0186 0.984375 23.0285 0.984375C21.1034 0.984375 19.5428 2.54496 19.5428 4.47012C19.5428 5.46797 19.9628 6.36715 20.6349 7.00266Z" fill="#FF9DD3"/>
<path d="M11.2005 14.9272C13.1256 14.9272 14.6863 13.3666 14.6863 11.4415C14.6863 9.51634 13.1256 7.95572 11.2005 7.95572C9.2754 7.95572 7.71478 9.51634 7.71478 11.4415C7.71478 13.3666 9.2754 14.9272 11.2005 14.9272Z" fill="#F9D888"/>
<path d="M4.36465 26.6601C6.28977 26.6601 7.85039 25.0995 7.85039 23.1744C7.85039 21.2493 6.28977 19.6887 4.36465 19.6887C2.43953 19.6887 0.878906 21.2493 0.878906 23.1744C0.878906 25.0995 2.43953 26.6601 4.36465 26.6601Z" fill="#FF9DD3"/>
<path d="M18.4215 25.2959C17.9361 25.2959 17.5426 25.6894 17.5426 26.1748V28.3997C17.5426 28.8851 17.9361 29.2786 18.4215 29.2786C18.9069 29.2786 19.3004 28.8851 19.3004 28.3997V26.1748C19.3004 25.6894 18.9069 25.2959 18.4215 25.2959Z" fill="black"/>
<path d="M41.5785 25.2959C41.0931 25.2959 40.6996 25.6894 40.6996 26.1748V28.3997C40.6996 28.8851 41.0931 29.2786 41.5785 29.2786C42.0639 29.2786 42.4574 28.8851 42.4574 28.3997V26.1748C42.4574 25.6894 42.0639 25.2959 41.5785 25.2959Z" fill="black"/>
<path d="M33.7152 28.9108C34.0341 28.5449 33.996 27.9897 33.6301 27.6708C33.2641 27.3518 32.709 27.3899 32.39 27.756C31.1267 29.2055 28.8768 29.2097 27.61 27.756C27.2912 27.39 26.7359 27.3519 26.3699 27.6708C26.004 27.9897 25.9659 28.5449 26.2847 28.9108C28.2473 31.1628 31.7471 31.1693 33.7152 28.9108Z" fill="black"/>
<path d="M20.437 22.4397C22.8437 22.4397 24.8017 20.4817 24.8017 18.075C24.8017 15.6684 22.8437 13.7104 20.437 13.7104C18.0303 13.7104 16.0724 15.6684 16.0724 18.075C16.0724 20.4817 18.0303 22.4397 20.437 22.4397ZM20.437 15.4682C21.8744 15.4682 23.0438 16.6376 23.0438 18.075C23.0438 19.5125 21.8744 20.6819 20.437 20.6819C18.9996 20.6819 17.8302 19.5125 17.8302 18.075C17.8302 16.6376 18.9996 15.4682 20.437 15.4682Z" fill="black"/>
<path d="M39.5631 22.4397C41.9698 22.4397 43.9277 20.4817 43.9277 18.075C43.9277 15.6684 41.9698 13.7104 39.5631 13.7104C37.1564 13.7104 35.1984 15.6684 35.1984 18.075C35.1985 20.4817 37.1565 22.4397 39.5631 22.4397ZM39.5631 15.4682C41.0005 15.4682 42.1699 16.6376 42.1699 18.075C42.1699 19.5125 41.0005 20.6819 39.5631 20.6819C38.1257 20.6819 36.9562 19.5125 36.9562 18.075C36.9562 16.6376 38.1258 15.4682 39.5631 15.4682Z" fill="black"/>
<path d="M3.48422 18.8991C1.49813 19.3075 0 21.0693 0 23.1744C0 24.5428 0.633516 25.7655 1.62211 26.5664C0.576094 30.7765 2.7498 35.199 6.62566 37.0286L10.1877 50.8752C11.2427 54.9771 14.9372 57.8631 19.172 57.8934H19.1783C19.1794 57.8934 19.1804 57.8933 19.1816 57.8933C19.2021 57.8938 19.2225 57.8947 19.243 57.8947H40.7575C40.7779 57.8947 40.7982 57.8938 40.8186 57.8933C40.8198 57.8933 40.8209 57.8934 40.822 57.8934H40.8284C45.063 57.8631 48.7575 54.9771 49.8127 50.8752L53.3755 37.0252C57.268 35.1833 59.4129 30.7291 58.3871 26.5594C59.3703 25.7584 60 24.5387 60 23.1744C60 21.0671 58.4987 19.3039 56.5096 18.8979C56.0116 16.5231 54.7713 14.3905 52.9525 12.7825C53.0893 12.3596 53.1641 11.9092 53.1641 11.4415C53.1641 9.0348 51.2061 7.07684 48.7995 7.07684C48.3282 7.07684 47.8747 7.15277 47.4493 7.29164C45.8317 5.42074 43.6718 4.14785 41.2561 3.64148C40.8679 1.62973 39.0947 0.105469 36.9714 0.105469C35.6569 0.105469 34.4771 0.690352 33.6763 1.61273C31.3055 0.795586 28.7089 0.789961 26.3229 1.61191C25.522 0.690117 24.3427 0.105586 23.0285 0.105586C20.9061 0.105586 19.1336 1.62867 18.7443 3.63891C16.3259 4.14422 14.1639 5.41746 12.545 7.28977C12.1213 7.15219 11.6696 7.07695 11.2005 7.07695C8.79387 7.07695 6.8359 9.03492 6.8359 11.4416C6.8359 11.9073 6.90996 12.3558 7.04566 12.7771C5.22398 14.3861 3.98215 16.521 3.48422 18.8991ZM4.36465 20.5676C5.80207 20.5676 6.97148 21.737 6.97148 23.1744C6.97148 24.6164 5.79574 25.7812 4.36465 25.7812C2.93508 25.7812 1.75781 24.618 1.75781 23.1744C1.75781 21.7377 2.9277 20.5676 4.36465 20.5676ZM11.8901 50.4374L8.61281 37.6973C8.61363 37.6975 8.61457 37.6976 8.61539 37.6978C10.0287 37.9978 10.622 37.873 15.2298 37.9014L15.9253 42.248C16.0021 42.7273 16.4525 43.0537 16.9321 42.977C17.3515 42.9098 17.6537 42.5564 17.6714 42.148C17.6784 41.9849 17.6851 42.1604 17.01 37.9015H24.2755C24.4934 40.5853 25.6209 54.474 25.7559 56.137H19.9279L18.2236 45.486C18.147 45.0067 17.6966 44.6801 17.2168 44.757C16.7377 44.8337 16.4112 45.2843 16.4878 45.7637L18.1345 56.0555C15.1493 55.6162 12.6582 53.4237 11.8901 50.4374ZM32.4805 56.1368H27.5196L26.0392 37.9012H33.9608C33.8107 39.75 32.6305 54.2886 32.4805 56.1368ZM51.3873 37.697L48.1099 50.4373C47.3418 53.4235 44.8507 55.6161 41.8654 56.0551L42.7004 50.8358C42.7771 50.3565 42.4507 49.9057 41.9714 49.8291C41.4927 49.7524 41.0414 50.0788 40.9646 50.5581L40.072 56.1367H34.2439C34.3941 54.288 35.5743 39.7493 35.7243 37.9011H42.9898L41.5271 47.0423C41.4505 47.5216 41.7769 47.9725 42.2562 48.0491C42.7354 48.126 43.1863 47.7995 43.2629 47.3201L44.7701 37.9011C49.3145 37.8971 50.1141 37.969 51.3873 37.697ZM58.2422 23.1744C58.2422 24.62 57.0625 25.7812 55.6354 25.7812C54.1979 25.7812 53.0285 24.6118 53.0285 23.1744C53.0285 21.737 54.1979 20.5676 55.6352 20.5676H55.6369C57.1008 20.5677 58.2422 21.7637 58.2422 23.1744ZM51.4063 11.4415C51.4063 12.8775 50.2364 14.0483 48.7995 14.0483C47.3621 14.0483 46.1926 12.8789 46.1926 11.4415C46.1926 10.0034 47.3634 8.83465 48.7995 8.83465C50.2369 8.83465 51.4063 10.0041 51.4063 11.4415ZM36.9714 1.86328C38.3986 1.86328 39.5446 3.01055 39.5763 4.40883L39.5777 4.45746C39.5875 5.89617 38.4122 7.07695 36.9714 7.07695C35.5339 7.07695 34.3645 5.90766 34.3645 4.47012C34.3646 3.03539 35.5327 1.86328 36.9714 1.86328ZM23.0285 1.86328C24.4624 1.86328 25.6354 3.03176 25.6354 4.47012C25.6354 5.91855 24.4529 7.07695 23.0285 7.07695C21.6137 7.07695 20.3961 5.92969 20.4234 4.40156C20.4601 2.99566 21.6142 1.86328 23.0285 1.86328ZM18.7714 5.43469C19.2131 7.38258 20.9539 8.82914 23.0201 8.83441C23.0229 8.83441 23.0257 8.83453 23.0286 8.83453C25.4337 8.83453 27.3933 6.87738 27.3933 4.46988C27.3933 4.06312 27.3307 3.60715 27.1971 3.17449C28.9649 2.63098 30.934 2.60027 32.8028 3.17543C32.6896 3.57164 32.6068 3.95496 32.6068 4.46977C32.6068 6.85184 34.5369 8.83418 36.9792 8.83418C39.0057 8.83078 40.7808 7.41492 41.2281 5.43715C43.0031 5.88281 44.6384 6.84656 45.8914 8.1859C44.9605 9.01559 44.4349 10.2069 44.4349 11.4412C44.4349 13.8479 46.3929 15.8059 48.7996 15.8059C50.0205 15.8059 51.218 15.292 52.059 14.345C53.3604 15.5875 54.2762 17.1632 54.7112 18.9081C52.7336 19.3349 51.2794 21.0938 51.2712 23.1572C51.2712 23.1628 51.2707 23.1684 51.2707 23.1742C51.2707 25.5809 53.2287 27.5388 55.6354 27.5388C56.0494 27.5388 56.3827 27.483 56.769 27.3888C57.4806 31.27 54.8671 35.3262 50.7214 36.0326C49.7753 36.1952 51.2993 36.1432 10.5671 36.1432C5.76328 36.1432 2.4232 31.7467 3.23965 27.3911C3.60855 27.4896 4.005 27.5388 4.36465 27.5388C6.78551 27.5388 8.7293 25.5657 8.7293 23.1742C8.7293 21.1261 7.28719 19.3379 5.28316 18.9068C5.71828 17.1606 6.63492 15.5837 7.93723 14.3408C8.76141 15.2714 9.95027 15.8058 11.2005 15.8058C13.6072 15.8058 15.5652 13.8478 15.5652 11.4411C15.5652 10.225 15.054 9.0259 14.1047 8.18203C15.3585 6.84305 16.9949 5.87953 18.7714 5.43469ZM11.2005 8.83465C12.6341 8.83465 13.8074 10.0021 13.8074 11.4415C13.8074 12.8788 12.638 14.0483 11.2005 14.0483C9.75398 14.0483 8.59371 12.8686 8.59371 11.4415C8.59371 10.0041 9.76313 8.83465 11.2005 8.83465Z" fill="black"/>
</svg>
