<svg width="60" height="66" viewBox="0 0 60 66" fill="none" xmlns="http://www.w3.org/2000/svg">
<path d="M23.7798 18.5414L9.66744 2.61778C7.70485 0.412843 4.29308 0.427023 2.34776 2.59651C0.53985 4.61261 0.708717 7.71242 2.72468 9.52033L18.5656 23.7255C19.9393 24.9602 22.0512 24.9942 23.4665 23.7398C24.9885 22.3908 25.1287 20.0634 23.7798 18.5414Z" fill="#C7C5CB"/>
<path d="M42.5547 8.60733H40.4248C39.2239 8.60733 38.1785 9.39366 37.8067 10.5356C36.995 13.0292 34.6516 14.8314 31.8872 14.8314C29.1228 14.8314 26.7794 13.0292 25.9677 10.5356C25.5959 9.39379 24.5505 8.60733 23.3496 8.60733H21.2197C18.8411 8.60733 17.1484 10.9301 17.8881 13.1908C19.815 19.0798 25.3544 23.3337 31.8872 23.3337C38.42 23.3337 43.9594 19.0798 45.8863 13.1908C46.6259 10.9301 44.9333 8.60733 42.5547 8.60733Z" fill="#F9ED80"/>
<path d="M22.2798 19.7681C24.6223 17.7237 27.2608 15.973 30.1298 14.5794C28.1627 14.0015 26.6001 12.4786 25.9676 10.5355C25.5958 9.39363 24.5504 8.60718 23.3495 8.60718H21.2196C18.841 8.60718 17.1483 10.9301 17.888 13.1907C18.7322 15.7704 20.2695 18.0361 22.2798 19.7681Z" fill="#F9D888"/>
<path d="M16.0602 24.666H48.1614V38.8065H16.0602V24.666Z" fill="#FFBE73"/>
<path d="M54.0147 32.8368C54.0147 25.3323 47.9311 19.2487 40.4267 19.2487C37.1913 19.2487 34.2207 20.3803 31.8871 22.2681L36.3298 28.8137C37.3719 27.7527 38.8221 27.0939 40.4267 27.0939C43.5985 27.0939 46.1696 29.665 46.1696 32.8368H54.0147Z" fill="#FFCA8A"/>
<path d="M17.6046 32.8368C17.6046 29.665 20.1758 27.0939 23.3475 27.0939C26.5193 27.0939 29.0904 29.665 29.0904 32.8368H36.9355C36.9355 25.3323 30.8519 19.2487 23.3475 19.2487C15.8431 19.2487 9.75952 25.3323 9.75952 32.8368H17.6046Z" fill="#F9D888"/>
<path d="M7.55042 36.956V55.0539C7.55042 60.5653 12.0183 65.0331 17.5296 65.0331H46.2446C51.756 65.0331 56.2237 60.5652 56.2237 55.0539V36.956H7.55042Z" fill="#FF6F7F"/>
<path d="M22.8782 19.2577C15.5911 19.5052 9.75952 25.4894 9.75952 32.8366H13.0807C15.0957 27.5639 18.4986 22.9094 22.8782 19.2577Z" fill="#FFBE73"/>
<path d="M11.0216 43.9881C11.0216 41.5747 11.3 39.2227 11.8239 36.956H7.55042V55.0539C7.55042 60.5653 12.0183 65.0332 17.5296 65.0332H19.086C14.0478 59.3117 11.0216 51.9807 11.0216 43.9881Z" fill="#FC5C70"/>
<path d="M53.3621 31.4132H10.4122C7.35108 31.4132 4.86951 33.8948 4.86951 36.9559C4.86951 40.017 7.35108 42.4986 10.4122 42.4986H53.3621C56.4232 42.4986 58.9048 40.017 58.9048 36.9559C58.9048 33.8948 56.4232 31.4132 53.3621 31.4132Z" fill="#DCDCDC"/>
<path d="M18.5333 58.9772C21.2545 58.9772 23.4605 57.2204 23.4605 55.0534C23.4605 52.8863 21.2545 51.1296 18.5333 51.1296C15.8121 51.1296 13.6061 52.8863 13.6061 55.0534C13.6061 57.2204 15.8121 58.9772 18.5333 58.9772Z" fill="white"/>
<path d="M45.2407 58.9772C47.962 58.9772 50.168 57.2204 50.168 55.0534C50.168 52.8863 47.962 51.1296 45.2407 51.1296C42.5194 51.1296 40.3134 52.8863 40.3134 55.0534C40.3134 57.2204 42.5194 58.9772 45.2407 58.9772Z" fill="white"/>
<path d="M13.6652 31.4132H10.4122C7.35108 31.4132 4.86951 33.8948 4.86951 36.956C4.86951 40.0172 7.35108 42.4987 10.4122 42.4987H11.0591C11.2441 38.5889 12.1537 34.8558 13.6652 31.4132Z" fill="#CECECC"/>
<path d="M21.4037 52.243C21.9376 52.243 22.3705 51.8101 22.3705 51.2762V49.2619C22.3705 48.728 21.9376 48.2951 21.4037 48.2951C20.8698 48.2951 20.4369 48.728 20.4369 49.2619V51.2762C20.4369 51.81 20.8698 52.243 21.4037 52.243Z" fill="black"/>
<path d="M42.3681 52.243C42.902 52.243 43.3349 51.8101 43.3349 51.2762V49.2619C43.3349 48.728 42.902 48.2951 42.3681 48.2951C41.8342 48.2951 41.4013 48.728 41.4013 49.2619V51.2762C41.4013 51.81 41.8342 52.243 42.3681 52.243Z" fill="black"/>
<path d="M35.3783 51.8512C35.729 51.4488 35.6871 50.838 35.2845 50.4873C34.882 50.1364 34.2713 50.1783 33.9204 50.581C32.8429 51.8175 30.9275 51.8162 29.851 50.581C29.5001 50.1784 28.8895 50.1365 28.4869 50.4873C28.0843 50.838 28.0424 51.4488 28.3932 51.8512C30.2417 53.9723 33.5318 53.9699 35.3783 51.8512Z" fill="black"/>
<path d="M42.5535 7.64H40.4236C38.8132 7.64 37.3916 8.68324 36.8862 10.2359C36.1798 12.4061 34.1702 13.8641 31.886 13.8641C29.6017 13.8641 27.5922 12.4061 26.8858 10.2359C26.3803 8.68324 24.9587 7.64013 23.3483 7.64013H21.2184C19.6413 7.64013 18.197 8.43999 17.3643 9.84584L10.3885 1.9747C8.03463 -0.669683 3.94869 -0.638746 1.62644 1.95059C-0.534413 4.36024 -0.331901 8.07867 2.07774 10.2397L14.4397 21.3251C11.4369 23.652 9.51783 26.9886 8.96121 30.611C6.06752 31.2719 3.90112 33.8647 3.90112 36.9559C3.90112 39.115 4.95867 41.031 6.58211 42.2159V55.0539C6.58211 61.0896 11.4925 66 17.5282 66H46.2433C52.279 66 57.1894 61.0896 57.1894 55.0539V42.2159C58.8129 41.031 59.8704 39.115 59.8704 36.9559C59.8704 33.8642 57.7032 31.271 54.8087 30.6106C54.4304 28.1501 53.4273 25.8285 51.8803 23.8574C51.5504 23.4373 50.9428 23.3642 50.5228 23.6939C50.1028 24.0236 50.0296 24.6313 50.3592 25.0514C51.604 26.6373 52.4441 28.4844 52.8207 30.4462H46.697C45.165 26.4131 40.2945 24.9084 36.7722 27.2063C35.9823 25.3205 34.8211 23.6752 33.4253 22.3366C37.7632 19.4481 43.4734 19.4964 47.7624 22.5662C48.1965 22.8768 48.8005 22.7768 49.1113 22.3427C49.422 21.9084 49.322 21.3046 48.8879 20.9938C47.369 19.9067 45.6817 19.1352 43.8998 18.6995C45.1898 17.1645 46.1819 15.3923 46.804 13.4911C47.7474 10.6077 45.5984 7.64 42.5535 7.64ZM3.36874 8.80003C1.75277 7.35099 1.61703 4.85743 3.06607 3.24146C4.5958 1.53577 7.33519 1.45276 8.94265 3.25873L16.7446 12.062C16.715 14.0714 18.5723 17.159 19.8718 18.7014C18.5489 19.0259 17.2788 19.5346 16.0971 20.214L3.36874 8.80003ZM14.8614 23.4928C22.1901 16.8337 33.9042 20.8696 35.7411 30.4462H29.6177C28.6387 27.869 26.1588 26.1267 23.3461 26.1267C20.5334 26.1267 18.0536 27.8689 17.0747 30.4462H10.9509C11.4625 27.7793 12.8266 25.3417 14.8614 23.4928ZM27.4828 30.4462H19.2095C21.0408 27.2731 25.6461 27.2634 27.4828 30.4462ZM53.8385 32.4048C56.1381 32.6443 57.9369 34.5939 57.9369 36.9559C57.9369 38.6644 56.9952 40.1561 55.6041 40.942C54.1292 41.7718 56.0699 41.5173 19.5243 41.5318C18.9904 41.5318 18.5575 41.9646 18.5575 42.4986C18.5575 43.0311 18.989 43.4654 19.5243 43.4654C56.4021 43.4415 53.9019 43.5953 55.256 43.1841V55.0538C55.256 60.0234 51.2129 64.0663 46.2435 64.0663H17.5283C12.5587 64.0663 8.51584 60.0234 8.51584 55.0538V43.1841C9.94683 43.6186 10.5643 43.4164 15.6571 43.4654C16.1886 43.4654 16.6239 43.0353 16.6239 42.4986C16.6239 41.9646 16.191 41.5318 15.6571 41.5318C9.97544 41.5037 9.5485 41.7191 8.16831 40.9423C6.77689 40.1565 5.83485 38.6644 5.83485 36.9557C5.83485 34.4221 7.89851 32.3798 10.4108 32.3798C56.4111 32.3798 53.4625 32.366 53.8385 32.4048ZM40.4256 28.0603C42.1657 28.0603 43.7259 28.9972 44.5622 30.4461H37.7041C37.6303 30.0001 37.536 29.5593 37.4218 29.1248C38.2696 28.4357 39.3173 28.0603 40.4256 28.0603ZM44.9663 12.8897C44.2987 14.93 43.1456 16.8027 41.6195 18.3307C38.1523 18.0502 34.6951 19.0153 31.8863 21.0504C28.9838 18.9442 25.4616 18.0412 22.1526 18.3308C20.825 17.0114 18.491 13.6847 18.6932 11.8325C18.8247 10.6167 19.8561 9.57359 21.2184 9.57359H23.3483C24.1189 9.57359 24.8016 10.0803 25.047 10.8343C26.0134 13.803 28.7619 15.7976 31.886 15.7976C35.0102 15.7976 37.7585 13.803 38.7249 10.8343C38.9703 10.0802 39.653 9.57346 40.4236 9.57346H42.5535C44.2778 9.57359 45.5016 11.2536 44.9663 12.8897Z" fill="black"/>
</svg>
