<svg width="56" height="56" viewBox="0 0 56 56" fill="none" xmlns="http://www.w3.org/2000/svg">
<path d="M54.2499 31.4563V33.2937C54.2499 36.3912 52.9549 39.3312 50.7062 41.4487L47.3024 40.9325C48.3962 39.13 48.9999 37.03 48.9999 34.86V31.64C48.9999 29.8288 48.5799 28.07 47.8099 26.495C47.2412 25.3225 46.4624 24.255 45.5087 23.3363L45.5174 23.3275C46.0074 22.435 46.9437 21.875 47.9849 21.875C48.5887 21.875 49.1749 22.0675 49.6649 22.4262C52.5524 24.5612 54.2499 27.9038 54.2499 31.4563Z" fill="#FCD770"/>
<path d="M44.485 22.435C44.8525 22.715 45.2025 23.0125 45.5087 23.3363C46.4625 24.255 47.2412 25.3225 47.81 26.495C48.58 28.07 49 29.8288 49 31.64V34.86C49 37.03 48.3963 39.13 47.3025 40.9325L39.095 39.6725V39.6638C38.7013 38.15 38.5 36.6012 38.5 35.0262V31.4738C38.5 30.2575 38.6225 29.0412 38.8587 27.8512C39.2875 27.9475 39.7513 28 40.25 28C42.1838 28 43.75 27.2125 43.75 26.25C43.75 25.6288 43.1025 25.0862 42.1313 24.78L42.3938 21.91C42.5338 21.8838 42.6825 21.875 42.8313 21.875C43.4263 21.875 44.0125 22.0762 44.485 22.435Z" fill="#FCD770"/>
<path d="M33.9238 22.2513C34.3875 22.5138 34.7638 22.8987 35.0175 23.38V23.3887C32.7863 25.5325 31.5 28.5075 31.5 31.64V34.86C31.5 36.1463 31.7188 37.4063 32.13 38.5963L27.2213 37.8438C26.5913 36.4263 26.25 34.8863 26.25 33.2938V31.4563C26.25 30.8 26.3113 30.1438 26.425 29.505C26.46 29.3213 26.495 29.1375 26.5387 28.9538C27.1338 26.3725 28.6388 24.0537 30.835 22.4262C31.325 22.0675 31.9113 21.875 32.515 21.875C33.0225 21.875 33.5038 22.0063 33.9238 22.2513Z" fill="#FCD770"/>
<path d="M38.1063 21.8925L38.3687 24.78C37.3975 25.0862 36.75 25.6287 36.75 26.25C36.75 26.9675 37.6163 27.58 38.8588 27.8512C38.6225 29.0412 38.5 30.2575 38.5 31.4738V35.0262C38.5 36.6012 38.7013 38.15 39.095 39.6637L33.6 38.8237L32.13 38.5962C31.7188 37.4062 31.5 36.1462 31.5 34.86V31.64C31.5 28.5075 32.7863 25.5325 35.0175 23.3887V23.38C35.3675 23.0387 35.735 22.7237 36.1288 22.435C36.6188 22.0762 37.2138 21.875 37.8263 21.875C37.9225 21.875 38.01 21.8838 38.0975 21.8925H38.1063Z" fill="#FCD770"/>
<path d="M43.75 26.25C43.75 27.2125 42.1838 28 40.25 28C39.7513 28 39.2875 27.9475 38.8587 27.8512C37.6162 27.58 36.75 26.9675 36.75 26.25C36.75 25.6287 37.3975 25.0862 38.3687 24.78L38.1062 21.8925L37.6337 16.7387C37.625 16.66 37.625 16.59 37.625 16.5113C37.625 15.12 38.745 14 40.1362 14H40.3638C41.055 14 41.685 14.28 42.14 14.735C42.595 15.19 42.875 15.82 42.875 16.5113C42.875 16.59 42.875 16.66 42.8663 16.7387L42.3938 21.91L42.1313 24.78C43.1025 25.0862 43.75 25.6287 43.75 26.25Z" fill="#CF9E76"/>
<path d="M20.9212 5.36375C21.2275 5.29375 21.5513 5.25 21.875 5.25C23.3013 5.25 24.5788 5.9325 25.375 7L25.3575 7.0875C25.0775 7.02625 24.7975 7 24.5 7C22.6887 7 21.14 8.09375 20.475 9.66C20.3612 9.65125 20.2475 9.625 20.125 9.625C17.9288 9.625 16.1262 11.2525 15.8112 13.3612C13.2562 14.0963 11.375 16.45 11.375 19.25C11.375 21.6388 12.74 23.695 14.735 24.71C14.2712 25.4012 14 26.2325 14 27.125C14 28.6825 14.8225 30.0388 16.0475 30.8175C15.8638 31.2988 15.75 31.8237 15.75 32.375C15.75 34.79 17.71 36.7762 20.125 36.7762C19.8975 36.7587 19.6787 36.75 19.46 36.75H19.25C17.5437 36.75 15.9513 37.24 14.6038 38.0887L12.25 31.5C9.835 31.5 7.875 29.54 7.875 27.125C7.875 26.5737 7.98875 26.0487 8.1725 25.5675C6.9475 24.7887 6.125 23.4325 6.125 21.875C6.125 20.9825 6.39625 20.1512 6.86 19.46C4.865 18.445 3.5 16.3888 3.5 14C3.5 11.2 5.38125 8.84625 7.93625 8.11125C8.25125 6.0025 10.0538 4.375 12.25 4.375C12.3725 4.375 12.4862 4.40125 12.6 4.41C13.265 2.84375 14.8138 1.75 16.625 1.75C18.7775 1.75 20.5625 3.3075 20.9212 5.36375Z" fill="#8CC152"/>
<path d="M32.865 17.9375C33.6438 18.725 34.125 19.81 34.125 21C34.125 21.4113 34.0638 21.8138 33.9588 22.19L33.9237 22.2513C33.5037 22.0063 33.0225 21.875 32.515 21.875C31.9112 21.875 31.325 22.0675 30.835 22.4262C28.6388 24.0537 27.1337 26.3725 26.5387 28.9538C26.495 29.1375 26.46 29.3213 26.425 29.505C26.3113 30.1438 26.25 30.8 26.25 31.4563V33.2937C26.25 34.8862 26.5913 36.4263 27.2213 37.8438L20.79 36.855C20.5625 36.82 20.3438 36.7937 20.125 36.7762C17.71 36.7762 15.75 34.79 15.75 32.375C15.75 31.8237 15.8637 31.2988 16.0475 30.8175C14.8225 30.0388 14 28.6825 14 27.125C14 26.2325 14.2713 25.4012 14.735 24.71C12.74 23.695 11.375 21.6388 11.375 19.25C11.375 16.45 13.2562 14.0963 15.8112 13.3613C16.1262 11.2525 17.9288 9.625 20.125 9.625C20.2475 9.625 20.3612 9.65125 20.475 9.66C21.14 8.09375 22.6888 7 24.5 7C24.7975 7 25.0775 7.02625 25.3575 7.0875C27.1163 7.4375 28.49 8.8375 28.7962 10.6137C29.1025 10.5438 29.4263 10.5 29.75 10.5C32.165 10.5 34.125 12.46 34.125 14.875C34.125 16.065 33.6438 17.15 32.865 17.9375Z" fill="#B4DD7F"/>
<path d="M5.95 43.75H10.675C10.5613 44.31 10.5 44.8963 10.5 45.5C10.5 46.1037 10.5613 46.69 10.675 47.25H5.95H3.5C3.01875 47.25 2.58125 47.0575 2.26625 46.7337C1.9425 46.4187 1.75 45.9813 1.75 45.5C1.75 44.5375 2.5375 43.75 3.5 43.75H5.95Z" fill="#B4DD7F"/>
<path d="M6.29125 40.285L11.4975 41.4487C11.1213 42.1662 10.8412 42.9362 10.675 43.75H5.95C5.08375 43.75 4.375 43.0413 4.375 42.175V41.825C4.375 40.9587 5.08375 40.25 5.95 40.25C6.06375 40.25 6.1775 40.2588 6.29125 40.285Z" fill="#B4DD7F"/>
<path d="M11.4975 49.5513L6.29125 50.715C6.1775 50.7412 6.06375 50.75 5.95 50.75C5.08375 50.75 4.375 50.0413 4.375 49.175V48.825C4.375 47.9587 5.08375 47.25 5.95 47.25H10.675C10.8412 48.0638 11.1213 48.8338 11.4975 49.5513Z" fill="#B4DD7F"/>
<path d="M53.27 42.84C52.6488 42.1225 51.7825 41.615 50.7938 41.4662L50.7062 41.4487L47.3025 40.9325L39.095 39.6725V39.6638L33.6 38.8237L32.13 38.5963L27.2213 37.8438L20.79 36.855C20.5625 36.82 20.3438 36.7937 20.125 36.7762C19.8975 36.7587 19.6788 36.75 19.46 36.75H19.25C17.5437 36.75 15.9513 37.24 14.6038 38.0887C13.2913 38.9112 12.215 40.075 11.4975 41.4487C11.1213 42.1662 10.8412 42.9363 10.675 43.75C10.5612 44.31 10.5 44.8962 10.5 45.5C10.5 46.1038 10.5612 46.69 10.675 47.25C10.8412 48.0638 11.1213 48.8338 11.4975 49.5513C11.9088 50.3388 12.4425 51.065 13.0638 51.6862C14.6475 53.27 16.835 54.25 19.25 54.25H19.46C19.8975 54.25 20.3438 54.215 20.79 54.145L33.6 52.1763L50.7938 49.5338C52.78 49.2275 54.25 47.5125 54.25 45.5C54.25 44.4938 53.8825 43.5575 53.27 42.84Z" fill="#FF826E"/>
<path d="M55.125 31.4554C55.125 27.6456 53.2779 24.0074 50.1839 21.7236C49.553 21.2564 48.7708 21 47.9824 21C46.9954 21 46.0705 21.3946 45.3915 22.0658C45.2646 21.9599 45.1491 21.8435 45.0179 21.7429C44.5322 21.3719 43.9495 21.1514 43.351 21.0604L43.7369 16.8175C43.7456 16.716 43.75 16.6136 43.75 16.5113C43.75 14.644 42.231 13.125 40.3638 13.125H40.1362C38.269 13.125 36.75 14.644 36.75 16.5113C36.75 16.6136 36.7544 16.716 36.764 16.8184L37.1516 21.0796C36.5969 21.1846 36.0605 21.399 35.6073 21.7367C35.4506 21.854 35.3115 21.9888 35.161 22.1121C35.0831 22.0316 35.0009 21.9564 34.916 21.8838C34.9659 21.5924 35 21.2975 35 21C35 19.8888 34.6535 18.8256 34.0112 17.9375C34.6535 17.0494 35 15.9871 35 14.875C35 11.879 32.4651 9.45087 29.4446 9.63462C28.8829 8.02462 27.573 6.811 25.963 6.34288C24.8973 5.01375 23.2907 4.27613 21.5696 4.38463C20.8451 2.30825 18.8834 0.875 16.625 0.875C14.7306 0.875 13.006 1.88825 12.0767 3.50262C9.75975 3.5805 7.75687 5.21588 7.18287 7.44362C4.47387 8.45425 2.625 11.0766 2.625 14C2.625 16.3441 3.77825 18.487 5.68663 19.782C5.39875 20.4391 5.25 21.1496 5.25 21.875C5.25 23.45 5.95 24.9139 7.15138 25.9053C7.05075 26.3113 7 26.7199 7 27.125C7 29.806 9.02125 32.025 11.62 32.3374L13.5555 37.758C12.5641 38.4886 11.7198 39.403 11.0696 40.453L6.4855 39.4345C6.31138 39.3942 6.132 39.375 5.95175 39.375C4.59987 39.375 3.5 40.4749 3.5 41.8267V42.1733C3.5 42.4183 3.54725 42.651 3.61462 42.875H3.5C2.05275 42.875 0.875 44.0527 0.875 45.5C0.875 46.9473 2.05275 48.125 3.5 48.125H3.61462C3.54725 48.349 3.5 48.5817 3.5 48.8267V49.1733C3.5 50.5251 4.59987 51.625 5.95175 51.625C6.132 51.625 6.31137 51.6057 6.48375 51.5664L11.0696 50.547C12.768 53.2893 15.7946 55.125 19.25 55.125H19.4556C19.9421 55.125 20.4347 55.0874 20.9186 55.013L50.9233 50.3974C53.3575 50.022 55.125 47.9631 55.125 45.5C55.125 43.5304 53.9849 41.8355 52.2874 41.0366C54.1004 38.871 55.125 36.1235 55.125 33.2946V31.4554ZM43.9539 23.1332C46.5658 25.13 48.125 28.3106 48.125 31.6435V34.8574C48.125 36.6511 47.6779 38.4072 46.8353 39.9744L39.8186 38.8946C39.5299 37.625 39.375 36.3282 39.375 35.0262V31.4738C39.375 30.5918 39.4634 29.7106 39.5973 28.8374C39.8116 28.8558 40.0251 28.875 40.25 28.875C42.7446 28.875 44.625 27.7463 44.625 26.25C44.625 25.424 44.0536 24.6908 43.064 24.2095L43.1926 22.7937C43.4656 22.8489 43.7281 22.9591 43.9539 23.1332ZM40.1362 14.875H40.3646C41.2668 14.875 42.0009 15.6091 42.0009 16.5113C42.0009 16.5611 41.9991 16.611 41.9939 16.66L41.1994 25.3986L41.867 25.613C42.6335 25.858 42.875 26.1809 42.875 26.25C42.875 26.4679 41.944 27.125 40.25 27.125C38.556 27.125 37.625 26.4679 37.625 26.25C37.625 26.1809 37.8665 25.858 38.633 25.6121L39.3006 25.3977L38.5061 16.66C38.5018 16.6101 38.5 16.5603 38.5 16.5113C38.5 15.6091 39.2341 14.875 40.1362 14.875ZM37.31 22.8226L37.436 24.2095C36.4464 24.6908 35.875 25.424 35.875 26.25C35.875 27.2143 36.6616 28.0201 37.884 28.4751C37.7274 29.4683 37.625 30.471 37.625 31.4738V35.0262C37.625 36.2285 37.7405 37.429 37.9645 38.6094L32.8064 37.8158C32.5255 36.8541 32.375 35.8627 32.375 34.8565V31.6426C32.375 28.315 33.9745 25.1353 36.6537 23.1385C36.8489 22.9932 37.0737 22.8865 37.31 22.8226ZM27.8539 37.0536C27.3787 35.8514 27.125 34.5922 27.125 33.2946V31.4545C27.125 28.1978 28.707 25.0863 31.3556 23.1297C31.6881 22.8848 32.1011 22.75 32.5176 22.75C33.0461 22.75 33.5326 22.9626 33.8887 23.3188C31.8255 25.5798 30.625 28.5495 30.625 31.6435V34.8574C30.625 35.7595 30.7326 36.652 30.9277 37.527L27.8539 37.0536ZM27.9361 10.7634L28.0954 11.6637L28.9879 11.4651C29.2591 11.4047 29.5085 11.375 29.75 11.375C31.6803 11.375 33.25 12.9447 33.25 14.875C33.25 15.7946 32.893 16.6644 32.2455 17.3241L31.6435 17.9375L32.2455 18.5509C32.893 19.2106 33.25 20.0804 33.25 21C33.25 21.0263 33.2448 21.0525 33.2448 21.0796C33.0076 21.0324 32.7661 21 32.5176 21C31.7292 21 30.947 21.2564 30.3161 21.7227C28.7236 22.8979 27.4698 24.4353 26.6193 26.1669C26.2876 25.1344 25.9394 24.1456 25.5806 23.2067C26.39 18.9315 29.3921 16.457 29.4227 16.4316L28.875 15.75L28.3281 15.0666C28.2065 15.1637 25.8396 17.0966 24.5105 20.5835C22.6896 16.4028 20.9711 13.6981 20.8609 13.5266L19.3883 14.4734C19.4119 14.5093 20.7463 16.6084 22.2994 19.95C19.6823 18.9647 16.7081 19.2369 16.5375 19.2544L16.7116 20.9956C18.0276 20.8635 21.7551 20.9274 23.4964 22.7045C24.1098 24.2121 24.7144 25.865 25.2481 27.636C22.5881 26.2719 19.4145 26.25 19.25 26.25V28C19.2911 28 23.1866 28.0263 25.4923 29.8594C25.4205 30.3861 25.375 30.9181 25.375 31.4554V33.2955C25.375 34.4776 25.557 35.6335 25.8948 36.7535L20.9186 35.9879C20.6561 35.9476 20.391 35.9205 20.125 35.9012C18.1947 35.9012 16.625 34.3192 16.625 32.3759C16.625 31.9681 16.7064 31.5499 16.8656 31.1307L17.1211 30.4614L16.5148 30.0781C15.4884 29.4289 14.875 28.3255 14.875 27.125C14.875 26.4364 15.0771 25.7687 15.4595 25.193L16.0046 24.374L15.1279 23.9286C13.3525 23.0256 12.25 21.2336 12.25 19.25C12.25 16.9216 13.8145 14.8479 16.0554 14.2065L16.5987 14.0508L16.6801 13.4916C16.9295 11.7863 18.4109 10.5 20.125 10.5C20.1574 10.5 20.1889 10.507 20.2204 10.5114C20.2816 10.5201 20.3438 10.528 20.4059 10.5324L21.0333 10.5831L21.28 10.0039C21.8321 8.71062 23.0956 7.875 24.5 7.875C26.1957 7.875 27.6404 9.0895 27.9361 10.7634ZM12.8669 30.625H12.25C10.3197 30.625 8.75 29.0553 8.75 27.125C8.75 26.7164 8.83137 26.2981 8.99062 25.8807L9.247 25.2114L8.64062 24.8281C7.61338 24.1789 7 23.0755 7 21.875C7 21.1864 7.20213 20.5187 7.5845 19.943L8.12963 19.124L7.25287 18.6786C5.4775 17.7756 4.375 15.9836 4.375 14C4.375 11.6716 5.9395 9.59787 8.1795 8.9565L8.72287 8.80075L8.80425 8.24162C9.0545 6.53625 10.5359 5.25 12.25 5.25C12.2832 5.25 12.3156 5.257 12.348 5.26137C12.4075 5.26925 12.467 5.27713 12.5282 5.28238L13.1582 5.33488L13.4059 4.753C13.9571 3.46063 15.2206 2.625 16.625 2.625C18.3207 2.625 19.7654 3.8395 20.0611 5.51338L20.2204 6.41375L21.1129 6.21513C21.3841 6.15475 21.6335 6.125 21.875 6.125C22.2775 6.125 22.6599 6.21338 23.0256 6.34113C21.7394 6.71738 20.6316 7.57138 19.9517 8.75263C17.6348 8.8305 15.6319 10.4659 15.0579 12.6936C12.3489 13.7043 10.5 16.3266 10.5 19.25C10.5 21.5941 11.6532 23.737 13.5616 25.032C13.2737 25.6891 13.125 26.3996 13.125 27.125C13.125 28.7 13.825 30.1639 15.0264 31.1561C14.9258 31.5621 14.875 31.9699 14.875 32.375C14.875 33.9124 15.5365 35.294 16.5839 36.2583C16.0641 36.4087 15.5645 36.6039 15.085 36.8358L12.8669 30.625ZM5.25 42.1733V41.8267C5.25 41.3875 5.67525 41.0489 6.10488 41.1416L10.269 42.0674C10.1675 42.3316 10.0765 42.6003 9.99862 42.875H5.95175C5.565 42.875 5.25 42.56 5.25 42.1733ZM2.625 45.5C2.625 45.0179 3.01787 44.625 3.5 44.625H5.95175H9.66875C9.64338 44.9137 9.625 45.2043 9.625 45.5C9.625 45.7957 9.64337 46.0863 9.66962 46.375H5.95175H3.5C3.01787 46.375 2.625 45.9821 2.625 45.5ZM6.10313 49.8584C5.68837 49.9476 5.25 49.6116 5.25 49.1733V48.8267C5.25 48.44 5.565 48.125 5.95175 48.125H9.99775C10.0756 48.3997 10.1675 48.6684 10.2681 48.9326L6.10313 49.8584ZM53.375 45.5C53.375 47.0934 52.2323 48.4251 50.6581 48.6675L20.6544 53.2831C20.2571 53.3444 19.8538 53.375 19.4556 53.375H19.25C14.9082 53.375 11.375 49.8418 11.375 45.5C11.375 41.1582 14.9082 37.625 19.25 37.625H19.4556C19.8538 37.625 20.2571 37.6556 20.6535 37.716L50.6572 42.3316C52.2323 42.5749 53.375 43.9066 53.375 45.5ZM53.375 33.2946C53.375 35.9861 52.2856 38.5901 50.3904 40.5204L48.6518 40.2526C49.4506 38.5744 49.875 36.7342 49.875 34.8565V31.6426C49.875 28.5329 48.6903 25.5483 46.655 23.2838C47.0085 22.9504 47.4775 22.75 47.9824 22.75C48.3997 22.75 48.8119 22.8848 49.1444 23.1315C51.793 25.0863 53.375 28.1986 53.375 31.4554V33.2946Z" fill="black"/>
<path d="M18.375 41.125H20.125V49.875H18.375V41.125Z" fill="black"/>
<path d="M25.375 41.125H27.125V49.875H25.375V41.125Z" fill="black"/>
<path d="M32.375 41.125H34.125V49.875H32.375V41.125Z" fill="black"/>
<path d="M39.375 42.875H41.125V48.125H39.375V42.875Z" fill="black"/>
<path d="M46.375 43.75H48.125V47.25H46.375V43.75Z" fill="black"/>
</svg>
