<svg width="54" height="54" viewBox="0 0 54 54" fill="none" xmlns="http://www.w3.org/2000/svg">
<path d="M25.5897 1.25139C24.1941 0.375893 22.354 0.785956 21.4578 2.16855L20.6018 3.48912C19.6853 4.90303 20.1064 6.78987 21.5327 7.68699C22.4827 8.28468 23.4496 8.92266 24.4276 9.59871L28.5659 3.21416C27.56 2.51891 26.5659 1.86374 25.5897 1.25139Z" fill="#DCDCDC"/>
<path d="M52.7485 28.4103C52.1362 27.4341 51.481 26.4401 50.7857 25.4341L44.4011 29.5725C45.0772 30.5505 45.7152 31.5172 46.3128 32.4673C47.2101 33.8935 49.0968 34.3147 50.5107 33.3982L51.8313 32.5422C53.214 31.6461 53.624 29.806 52.7485 28.4103Z" fill="#DCDCDC"/>
<path d="M15.9269 10.9141C14.5312 10.0386 12.6911 10.4487 11.795 11.8313L10.939 13.1518C10.0226 14.5658 10.4436 16.4526 11.8698 17.3497C12.8199 17.9474 13.7867 18.5854 14.7646 19.2614L18.903 12.8769C17.8972 12.1816 16.9031 11.5265 15.9269 10.9141Z" fill="#DCDCDC"/>
<path d="M43.0858 38.0731C42.4734 37.0968 41.8182 36.1028 41.1229 35.0968L34.7383 39.2352C35.4144 40.2132 36.0524 41.1799 36.6501 42.1301C37.5473 43.5564 39.434 43.9775 40.8479 43.061L42.1685 42.205C43.5512 41.3088 43.9613 39.4687 43.0858 38.0731Z" fill="#DCDCDC"/>
<path d="M51.9412 22.6247C50.7183 18.9306 47.8101 14.4507 43.6795 10.3203C39.549 6.18987 35.0691 3.28167 31.3751 2.05876C30.1447 1.65144 28.798 1.86502 27.7518 2.63009C26.3003 3.69142 24.263 5.60009 22.9834 8.5857C22.133 10.57 23.0532 12.871 25.0247 13.7505C27.8036 14.9902 30.9441 17.1922 33.8758 20.124C36.8077 23.0558 39.0098 26.1962 40.2494 28.9752C41.1289 30.9468 43.4299 31.867 45.4141 31.0166C48.3997 29.7369 50.3084 27.6996 51.3698 26.2481C52.1348 25.2019 52.3485 23.855 51.9412 22.6247Z" fill="#E27858"/>
<path d="M42.2786 32.2875C41.0557 28.5933 38.1475 24.1135 34.0171 19.9831C29.8866 15.8526 25.4067 12.9444 21.7127 11.7215C20.4823 11.3142 19.1355 11.5278 18.0894 12.2928C16.6379 13.3543 14.6005 15.2629 13.3209 18.2486C12.4705 20.2328 13.3908 22.5339 15.3623 23.4134C18.1412 24.653 21.2817 26.855 24.2134 29.7868C27.1453 32.7187 29.3472 35.8591 30.5869 38.6381C31.4664 40.6096 33.7674 41.5298 35.7517 40.6794C38.7373 39.3998 40.646 37.3624 41.7074 35.911C42.4724 34.8646 42.6859 33.5178 42.2786 32.2875Z" fill="#DC6742"/>
<path d="M23.3435 22.4297C24.4006 21.3726 24.1814 19.4396 22.854 18.1122C21.5266 16.7848 19.5936 16.5656 18.5365 17.6227C17.4794 18.6798 17.6985 20.6129 19.0259 21.9403C20.3534 23.2677 22.2864 23.4868 23.3435 22.4297Z" fill="#FF8997"/>
<path d="M36.3702 35.459C37.4273 34.4019 37.2082 32.4689 35.8808 31.1415C34.5533 29.8141 32.6203 29.5949 31.5632 30.652C30.5061 31.7091 30.7253 33.6421 32.0527 34.9696C33.3801 36.297 35.3131 36.5161 36.3702 35.459Z" fill="#FF8997"/>
<path d="M6.26413 20.5767C4.86846 19.7012 3.02835 20.1113 2.13218 21.4939L1.27619 22.8144C0.359776 24.2284 0.780807 26.1152 2.20706 27.0123C3.15712 27.61 4.12396 28.248 5.10186 28.924L9.24024 22.5395C8.2345 21.8442 7.24035 21.1892 6.26413 20.5767Z" fill="#DCDCDC"/>
<path d="M33.4231 47.7358C32.8107 46.7596 32.1556 45.7655 31.4602 44.7596L25.0757 48.898C25.7517 49.876 26.3897 50.8427 26.9874 51.7929C27.8846 53.2191 29.7714 53.6403 31.1854 52.7237L32.5059 51.8678C33.8884 50.9716 34.2986 49.1315 33.4231 47.7358Z" fill="#DCDCDC"/>
<path d="M19.0843 15.6948C20.3637 14.4154 21.7154 13.2678 23.1173 12.2519C22.6385 12.0499 22.1695 11.8727 21.7125 11.7215C20.4821 11.3142 19.1354 11.5278 18.0893 12.2928C16.6378 13.3541 14.6004 15.2629 13.3208 18.2485C12.7158 19.6601 13.0076 21.2316 13.9359 22.338C15.3084 19.9965 17.0266 17.7524 19.0843 15.6948Z" fill="#CA5935"/>
<path d="M32.6158 41.9501C31.3929 38.2559 28.4847 33.7761 24.3543 29.6457C20.2238 25.5152 15.7439 22.607 12.0499 21.3841C10.8195 20.9768 9.47262 21.1904 8.42658 21.9554C6.97502 23.0169 4.93768 24.9255 3.65813 27.9111C2.80773 29.8954 3.72795 32.1965 5.69937 33.076C8.47837 34.3156 11.6188 36.5176 14.5506 39.4494C17.4824 42.3813 19.6844 45.5217 20.9241 48.3007C21.8036 50.2722 24.1046 51.1924 26.0889 50.342C29.0745 49.0624 30.9832 47.025 32.0446 45.5736C32.8096 44.5273 33.0232 43.1805 32.6158 41.9501Z" fill="#E27858"/>
<path d="M14.0343 22.1698C13.3532 21.8593 12.6895 21.5959 12.0499 21.3841C10.8195 20.9768 9.47263 21.1904 8.42659 21.9554C6.97502 23.0167 4.93768 24.9255 3.65813 27.9111C2.80773 29.8953 3.72795 32.1963 5.69937 33.0759C7.05296 33.6797 8.4924 34.5135 9.95166 35.547C10.0957 31.1142 11.4764 26.4726 14.0343 22.1698Z" fill="#DC6742"/>
<path d="M39.3915 6.55089C36.5946 4.40808 33.8138 2.86602 31.3752 2.05876C30.1448 1.65144 28.7981 1.86502 27.7519 2.63009C26.3005 3.69142 24.2631 5.60009 22.9835 8.5857C22.4664 9.79226 22.6049 11.1154 23.2353 12.1653C28.2992 8.53022 34.0143 6.62303 39.3915 6.55089Z" fill="#DC6742"/>
<path d="M24.7502 20.1399L25.733 19.1571C26.0419 18.8482 26.0419 18.3474 25.733 18.0383C25.4241 17.7294 24.9232 17.7294 24.6143 18.0383L23.6315 19.0211C23.3226 19.33 23.3226 19.8309 23.6315 20.1398C23.9403 20.4487 24.4413 20.4488 24.7502 20.1399Z" fill="black"/>
<path d="M34.9788 30.3685L35.9616 29.3857C36.2705 29.0768 36.2705 28.5759 35.9616 28.2669C35.6527 27.958 35.1518 27.958 34.8429 28.2669L33.8601 29.2496C33.5512 29.5586 33.5512 30.0594 33.8601 30.3685C34.1691 30.6774 34.6699 30.6774 34.9788 30.3685Z" fill="black"/>
<path d="M30.737 26.8031C31.1729 26.7731 31.502 26.3956 31.472 25.9597C31.4421 25.5238 31.0644 25.1948 30.6286 25.2247C29.5753 25.2972 28.7029 24.4248 28.7753 23.3714C28.8052 22.9355 28.4762 22.5579 28.0403 22.5279C27.604 22.498 27.2268 22.827 27.1968 23.2629C27.0588 25.2727 28.7265 26.9416 30.737 26.8031Z" fill="black"/>
<path d="M5.37832 33.7961C6.67221 34.3733 8.03075 35.1602 9.4163 36.1349C9.77352 36.3863 10.2671 36.3004 10.5186 35.9431C10.7699 35.5857 10.684 35.0922 10.3267 34.8408C8.85784 33.8075 7.40986 32.9699 6.02294 32.3512C4.45462 31.6515 3.72046 29.8152 4.37573 28.2467C4.79793 27.4481 5.75759 24.8831 8.89507 22.5909C9.73302 21.978 10.8201 21.8066 11.8031 22.132C19.603 24.7143 29.2802 34.3795 31.8684 42.1974C32.1939 43.1803 32.0223 44.2675 31.4095 45.1054C29.9171 47.1476 27.9345 48.6899 25.7843 49.6123C24.0085 50.3093 22.2977 49.4313 21.6492 47.9775C19.8151 43.8661 16.3541 39.7945 12.9028 36.8447C12.5708 36.5608 12.0714 36.5999 11.7874 36.9319C11.5035 37.2641 11.5427 37.7635 11.8748 38.0474C15.1474 40.8447 18.4667 44.7269 20.2043 48.6221C21.1535 50.7498 23.5195 51.8702 25.7339 51.297C25.933 51.6036 26.1301 51.9102 26.321 52.2136C27.4541 54.0149 29.8336 54.5445 31.6192 53.3871L32.9398 52.531C34.6762 51.4055 35.1953 49.0655 34.0969 47.3145C33.7426 46.7496 33.3673 46.1698 32.9793 45.586C33.6474 44.415 33.7981 43.0038 33.3736 41.711C34.0545 41.8345 34.7388 41.8063 35.3978 41.634C35.5971 41.9411 35.7942 42.2476 35.9845 42.55C36.5333 43.4224 37.3888 44.0248 38.3936 44.2464C39.3928 44.4668 40.4196 44.283 41.2826 43.7236L42.6033 42.8675C44.3396 41.7421 44.8587 39.4019 43.7604 37.651C43.4062 37.0864 43.031 36.5067 42.6427 35.9225C43.3109 34.7516 43.4616 33.3403 43.0371 32.0475C43.7165 32.1709 44.401 32.143 45.0613 31.9706C45.2606 32.2776 45.4577 32.5841 45.648 32.8866C46.7811 34.688 49.1601 35.2178 50.9461 34.0601L52.2668 33.204C54.003 32.0786 54.5221 29.7384 53.4239 27.9876C53.0694 27.4224 52.6941 26.8427 52.3063 26.259C52.9764 25.0849 53.1263 23.6689 52.6975 22.3732C52.0571 20.439 51.0081 18.3681 49.5796 16.2178C49.3378 15.8539 48.8467 15.7549 48.483 15.9966C48.1191 16.2383 48.0201 16.7294 48.2618 17.0933C49.5935 19.0976 50.6079 21.0953 51.1955 22.8704C51.5209 23.8534 51.3494 24.9406 50.7366 25.7785C48.0445 29.4544 44.2547 30.6425 45.0798 30.2981C44.1641 30.6803 43.1334 30.6058 42.2759 30.102C39.0707 22.9617 31.182 14.9929 23.8986 11.7247C23.4118 10.8959 23.3085 9.9409 23.7164 8.88706C24.6828 6.63551 26.2738 4.68835 28.2221 3.2642C29.0601 2.65143 30.147 2.47983 31.1302 2.80531C34.8581 4.0394 39.23 6.98102 43.1248 10.876C44.306 12.057 45.4134 13.297 46.4165 14.5617C46.688 14.904 47.1857 14.9614 47.5279 14.6898C47.8702 14.4184 47.9276 13.9208 47.656 13.5784C46.6153 12.2666 45.4672 10.9809 44.2435 9.75717C40.1801 5.69367 35.5815 2.6124 31.6273 1.30333C30.3318 0.874384 28.9157 1.02447 27.7415 1.6944C27.1574 1.30617 26.5776 0.931021 26.0129 0.576752C24.2621 -0.521495 21.9218 -0.00248269 20.7964 1.73385L19.9403 3.05453C18.7853 4.83621 19.3087 7.21717 21.1138 8.35275C21.4168 8.54333 21.724 8.74077 22.0314 8.94042C21.8574 9.60678 21.833 10.2959 21.9544 10.9641C20.6612 10.5388 19.2493 10.6895 18.0779 11.358C17.4936 10.9696 16.9139 10.5944 16.3493 10.2402C14.5985 9.14197 12.2584 9.66099 11.1328 11.3973L10.2767 12.718C9.1193 14.5037 9.64886 16.883 11.4503 18.0162C11.7535 18.207 12.0605 18.4043 12.3678 18.6039C12.1938 19.2701 12.1695 19.9593 12.2908 20.6274C10.9978 20.2023 9.58578 20.3529 8.41434 21.0213C7.83068 20.6333 7.25092 20.2582 6.68582 19.9037C4.93493 18.8053 2.59479 19.3245 1.46933 21.0608L0.613242 22.3815C-0.544172 24.1671 -0.0146136 26.5463 1.78679 27.6796C2.08938 27.87 2.39609 28.0672 2.70332 28.2665C2.1341 30.4642 3.23604 32.8404 5.37832 33.7961ZM51.406 31.8762L50.0854 32.7323C49.0384 33.411 47.6485 33.0952 46.987 32.0439C46.8445 31.8174 46.699 31.5888 46.5513 31.3594C47.4359 30.9142 48.2686 30.3836 49.0284 29.7919C49.9029 29.1103 50.7358 28.292 51.3032 27.6111C51.5719 28.0218 51.8329 28.4287 52.0835 28.8281C52.725 29.8509 52.4212 31.2183 51.406 31.8762ZM32.0791 51.2031L30.7584 52.0592C29.7104 52.7385 28.3206 52.421 27.6601 51.3709C27.5174 51.1441 27.3718 50.9155 27.2244 50.6864C30.2091 49.215 31.8531 47.0458 31.9764 46.9381C32.2452 47.3489 32.506 47.7559 32.7566 48.1552C33.3981 49.1779 33.0942 50.5452 32.0791 51.2031ZM41.7426 41.5397L40.4219 42.3957C39.3742 43.075 37.9843 42.7577 37.3235 41.7074C37.1811 41.4809 37.0355 41.2523 36.8878 41.0229C39.8929 39.5204 41.556 37.3406 41.6397 37.2745C41.9087 37.6854 42.1695 38.0923 42.42 38.4915C43.0616 39.5143 42.7577 40.8817 41.7426 41.5397ZM21.2679 3.91484L22.124 2.59416C22.7845 1.57533 24.153 1.27749 25.1721 1.91684C25.5713 2.16722 25.9783 2.42815 26.3892 2.6971C26.0652 3.03291 24.1526 4.46749 22.6408 7.44899C22.4114 7.30133 22.1828 7.15579 21.9563 7.0133C20.9063 6.35285 20.5886 4.96288 21.2679 3.91484ZM21.4665 12.4685C29.1821 15.0224 38.9195 24.6436 41.5317 32.5338C41.8469 33.4857 41.7223 34.5637 41.0146 35.5195C40.2987 36.4839 39.4525 37.3615 38.5283 38.0994C36.9143 39.3907 35.3674 39.9817 35.4161 39.9613C34.5006 40.3436 33.4697 40.2692 32.6122 39.7652C29.3463 32.4916 21.3985 24.6027 14.235 21.3879C13.3803 19.9335 14.0423 18.5686 14.0402 18.5814C14.9932 16.3308 16.6008 14.3581 18.5583 12.9274C19.3964 12.3147 20.4836 12.1431 21.4665 12.4685ZM11.6045 13.5783L12.4605 12.2576C13.1212 11.2385 14.4896 10.9411 15.5087 11.5802C15.9078 11.8306 16.3148 12.0915 16.7257 12.3605C15.387 13.4558 13.9279 15.2113 12.9774 17.1124C12.7482 16.9647 12.5195 16.8191 12.293 16.6767C11.2409 16.0148 10.9261 14.6247 11.6045 13.5783ZM1.94099 23.2418L2.79708 21.9211C3.45763 20.9022 4.82598 20.6044 5.84523 21.2438C6.24464 21.4944 6.65164 21.7552 7.06223 22.0239C7.06139 22.0247 7.06055 22.0255 7.0597 22.0261C5.45436 23.3937 4.17629 25.0512 3.31387 26.7758C3.08448 26.6281 2.85582 26.4826 2.62938 26.34C1.57712 25.6783 1.26282 24.2879 1.94099 23.2418Z" fill="black"/>
</svg>
