<svg width="56" height="50" viewBox="0 0 56 50" fill="none" xmlns="http://www.w3.org/2000/svg">
<path d="M22.7662 14.5111C22.059 13.0034 21.4337 11.7462 20.9403 10.7847C20.3055 9.54774 20.7574 8.0306 21.9639 7.33979L23.3869 6.52516C24.6719 5.78951 26.3112 6.27163 26.9911 7.58697C28.4118 10.3355 30.8096 15.2826 33.2085 21.6263H23.5379L22.7662 14.5111Z" fill="#F9ED80"/>
<path d="M30.1923 17.635C29.0905 12.3873 27.8918 8.21132 27.1331 5.77707C26.7193 4.4498 27.4241 3.0323 28.7311 2.55827L30.2726 1.99926C31.6646 1.49438 33.1971 2.24994 33.642 3.66219C34.9467 7.80488 37.4068 16.5455 38.7422 27.2376C38.3089 27.759 38.0027 28.3945 37.8772 29.101C37.8351 29.338 37.7725 29.5669 37.6919 29.7863H31.0897L30.1923 17.635Z" fill="#F9D888"/>
<path d="M33.6136 22.0651C34.9887 13.6615 36.9008 6.93391 37.9971 3.45295C38.4419 2.04059 39.9745 1.28513 41.3665 1.79001L42.9079 2.34902C44.2149 2.82306 44.9198 4.24056 44.506 5.56782C43.3569 9.25431 41.1987 16.9339 39.8965 26.2843V30.5991L33.6137 34.4219V22.0651H33.6136Z" fill="#F9ED80"/>
<path d="M46.1708 25.7861C47.3279 20.0552 48.6342 15.4902 49.4419 12.8989C49.8557 11.5716 49.1509 10.1541 47.8439 9.6801L46.3024 9.12108C44.9104 8.61621 43.3779 9.37177 42.933 10.784C41.9435 13.926 40.2892 19.7137 38.9651 26.9912L46.1708 25.7861Z" fill="#F9D888"/>
<path d="M52.0955 26.2709C53.2179 23.3293 54.2333 20.9735 54.9481 19.3933C55.5213 18.1259 54.9952 16.6326 53.7552 16.0023L52.2935 15.2593C50.9738 14.5885 49.3608 15.151 48.7467 16.4981C47.8202 18.5306 46.4415 21.7333 44.9627 25.7861L52.0955 26.2709Z" fill="#F9ED80"/>
<path d="M12.3347 12.5957C11.7953 10.967 10.7002 9.70469 9.39358 9.01333C8.40329 8.48942 7.18595 8.89247 6.70404 9.90397C6.06825 11.2386 5.9429 12.905 6.48223 14.5337C6.55584 14.7561 6.64017 14.9714 6.73358 15.1796C6.5099 15.1345 6.2812 15.1 6.04812 15.0776C4.31322 14.9101 2.6925 15.42 1.52776 16.364C0.700013 17.0348 0.580794 18.2695 1.26483 19.0864C2.22733 20.2359 3.72051 21.0465 5.45542 21.2142C7.85642 21.4461 10.039 20.3803 11.0964 18.6623C12.5373 17.25 13.093 14.8857 12.3347 12.5957Z" fill="#E7886E"/>
<path d="M37.4266 29.4245L37.406 29.4001C36.2471 28.0386 36.6781 26.463 36.6752 26.386C36.9198 24.8529 36.1001 23.3476 34.6797 22.7211L34.5339 22.6568C32.7676 21.8777 32.57 20.1765 32.5374 20.1089C32.1817 18.6327 30.8944 17.5682 29.3776 17.4959L29.1496 17.4851C27.2501 17.3946 26.4579 15.9271 26.4095 15.8822C25.5274 14.6046 23.895 14.0822 22.4351 14.6103L22.1869 14.7001C20.5819 15.2805 19.3321 14.4495 19.3099 14.4427C17.8646 13.6223 16.0387 13.9607 14.9832 15.2444L14.8291 15.4319C13.9025 16.559 12.6778 16.6413 12.6644 16.6458C10.9134 16.8916 9.63906 18.4326 9.72634 20.1986C9.76867 21.054 9.48812 21.8941 8.94048 22.5527L8.78528 22.7393C7.72248 24.017 7.73298 25.8739 8.81021 27.1395L8.83099 27.1639C9.98982 28.5254 9.55889 30.101 9.56173 30.178C9.31717 31.7111 10.1368 33.2164 11.5573 33.8429L11.7031 33.9072C13.4694 34.6863 13.667 36.3875 13.6996 36.4552C14.0553 37.9314 15.3425 38.9959 16.8593 39.0682L17.0874 39.079C18.987 39.1695 19.7791 40.6371 19.8274 40.6819C20.7096 41.9595 22.342 42.4819 23.8019 41.9538L24.0501 41.864C25.6551 41.2836 26.9049 42.1146 26.9271 42.1214C28.3724 42.9418 30.1983 42.6034 31.2537 41.3197L31.4079 41.1322C32.3345 40.0051 33.5591 39.9228 33.5726 39.9182C35.3236 39.6724 36.5979 38.1314 36.5106 36.3654C36.4683 35.51 36.7488 34.6699 37.2965 34.0113L37.4517 33.8247C38.5143 32.5471 38.5038 30.6901 37.4266 29.4245Z" fill="#E7886E"/>
<path d="M11.7436 30.3184C11.7436 24.3426 13.71 18.7642 17.1116 14.0363C16.301 14.1591 15.5363 14.5717 14.9831 15.2443L14.829 15.4318C13.9024 16.5588 12.6777 16.6411 12.6643 16.6456C10.9133 16.8915 9.63897 18.4325 9.72625 20.1985C9.76847 21.0539 9.48803 21.894 8.94039 22.5524L8.78519 22.739C7.72239 24.0167 7.73289 25.8737 8.81012 27.1393L8.8309 27.1637C9.98973 28.5252 9.5588 30.1007 9.56164 30.1777C9.31708 31.7108 10.1367 33.2162 11.5572 33.8427L11.703 33.907C11.8094 33.9539 11.9098 34.0043 12.0052 34.0575C11.8338 32.8317 11.7436 31.5842 11.7436 30.3184Z" fill="#E27858"/>
<path d="M50.1792 25.7861H41.8333C39.8854 25.7861 38.2181 27.1831 37.8772 29.1009C37.5363 31.0187 35.869 32.4157 33.9211 32.4157H23.2961C21.3482 32.4157 19.6809 31.0187 19.34 29.1009C18.9991 27.1831 17.3318 25.7861 15.3839 25.7861H7.03805C4.53752 25.7861 2.64435 28.0455 3.08196 30.5075L5.06864 41.6833C5.75607 45.5501 9.11782 48.367 13.0453 48.367H44.1718C48.0993 48.367 51.4611 45.55 52.1485 41.6833L54.1351 30.5075C54.5729 28.0454 52.6797 25.7861 50.1792 25.7861Z" fill="#60D9A7"/>
<path d="M11.7437 30.3184C11.7437 28.7785 11.876 27.2655 12.1279 25.786H7.03805C4.53752 25.786 2.64435 28.0455 3.08196 30.5074L5.06864 41.6832C5.75607 45.5501 9.11782 48.3669 13.0453 48.3669H18.4815C14.2427 43.2894 11.7437 37.0563 11.7437 30.3184Z" fill="#00CD8C"/>
<path d="M19.5074 39.3549V37.4485C19.5074 36.9954 19.1402 36.6281 18.6871 36.6281C18.2341 36.6281 17.8668 36.9954 17.8668 37.4485V39.3549C17.8668 39.8079 18.2341 40.1752 18.6871 40.1752C19.1402 40.1752 19.5074 39.8079 19.5074 39.3549Z" fill="black"/>
<path d="M39.3496 39.3549V37.4485C39.3496 36.9954 38.9823 36.6281 38.5292 36.6281C38.0762 36.6281 37.7089 36.9954 37.7089 37.4485V39.3549C37.7089 39.8079 38.0762 40.1752 38.5292 40.1752C38.9823 40.1751 39.3496 39.8079 39.3496 39.3549Z" fill="black"/>
<path d="M31.8424 39.837C32.14 39.4956 32.1045 38.9773 31.7629 38.6797C31.4213 38.382 30.9032 38.4177 30.6055 38.7593C29.5479 39.9729 27.6677 39.9717 26.611 38.7593C26.3134 38.4177 25.7952 38.3821 25.4536 38.6797C25.1122 38.9773 25.0765 39.4956 25.3741 39.837C27.0859 41.801 30.1327 41.7989 31.8424 39.837Z" fill="black"/>
<path d="M4.07731 36.1025C4.52334 36.0232 4.82073 35.5974 4.74143 35.1513L3.89039 30.3638C3.5417 28.403 5.05074 26.6065 7.03874 26.6065H15.3843C16.9367 26.6065 18.2608 27.716 18.5326 29.2445C18.9438 31.5573 20.9472 33.2359 23.2961 33.2359C34.1108 33.2343 34.1352 33.2633 34.6727 33.1766C36.617 32.8731 38.2052 31.4114 38.642 29.4552C38.9951 27.8739 40.1003 26.6065 41.8327 26.6065C50.7253 26.6065 50.3864 26.5747 50.8712 26.6822C52.4302 26.9972 53.6415 28.5925 53.3265 30.3638L51.3399 41.5392C50.7212 45.0198 47.7063 47.5459 44.1712 47.5459H13.0456C9.51051 47.5459 6.4957 45.0197 5.87696 41.5392L5.32462 38.4323C5.24532 37.9863 4.81953 37.6892 4.37349 37.7683C3.92746 37.8476 3.63007 38.2734 3.70937 38.7195L4.26171 41.8265C5.01979 46.0912 8.71404 49.1866 13.0456 49.1866H44.171C48.5026 49.1866 52.1968 46.0912 52.9549 41.8265L54.9415 30.6511C55.2629 28.8425 54.5376 27.0382 53.098 25.9465C54.1458 23.2407 55.0789 21.0921 55.6941 19.7317C56.4493 18.0618 55.7604 16.1027 54.1257 15.2717L52.6641 14.5288C51.7896 14.0841 50.7816 14.0276 49.8401 14.4025C49.9749 13.951 50.1034 13.5302 50.2239 13.1437C50.7691 11.3946 49.846 9.53491 48.1224 8.90983L46.5811 8.35081C45.9089 8.10702 45.2079 8.08405 44.5604 8.24964C44.8299 7.30978 45.0765 6.4921 45.2883 5.81321C45.8335 4.06419 44.9104 2.20438 43.1869 1.5793L41.6454 1.02028C39.8135 0.355831 37.8 1.34742 37.2141 3.20789C36.8363 4.40763 36.3384 6.06925 35.7911 8.10275C35.2591 6.14078 34.7784 4.54303 34.4238 3.41691C33.8385 1.5583 31.8262 0.564299 29.9926 1.22941L28.4512 1.78842C26.8146 2.38211 25.9008 4.08891 26.2794 5.7571C25.2601 5.22214 24.0289 5.21361 22.9793 5.81452L21.5564 6.62903C19.9653 7.53991 19.3742 9.5302 20.2104 11.1601C20.6757 12.0667 21.149 13.0235 21.6223 14.0135C20.9883 14.1655 20.3654 14.0825 19.7026 13.7233C17.908 12.7124 15.6589 13.132 14.3499 14.7243L14.1957 14.9118C13.9549 15.2047 13.6878 15.4046 13.4402 15.5413C13.8054 12.5739 12.2627 9.60425 9.77771 8.28945C8.37345 7.54658 6.64729 8.11828 5.96414 9.5523C5.29531 10.9559 5.14874 12.6314 5.54162 14.2284C3.86249 14.1977 2.24199 14.7307 1.01207 15.7275C-0.173005 16.6879 -0.342318 18.4445 0.636698 19.6137C2.49607 21.8342 5.79854 22.6472 8.57787 21.6397C8.50109 21.776 8.41217 21.9064 8.31045 22.0287C8.25806 22.118 7.16168 23.1573 7.17754 24.9663C7.11826 24.9791 4.93153 24.786 3.33028 26.6972C2.40857 27.7971 2.02401 29.2384 2.27514 30.6514L3.12618 35.4388C3.20537 35.8845 3.63139 36.182 4.07731 36.1025ZM48.6143 18.8175C48.9088 18.1365 49.204 17.4712 49.4922 16.839C49.9133 15.9151 51.0168 15.5317 51.9208 15.9912L53.3824 16.7342C54.2335 17.1669 54.5925 18.1867 54.1994 19.0558C53.588 20.4075 52.6676 22.5254 51.6321 25.1889C50.658 24.8847 50.047 24.9685 47.1759 24.9661C47.2955 24.4271 47.7686 22.0875 48.6143 18.8175ZM38.779 3.70041C39.0837 2.73331 40.1312 2.21597 41.0861 2.56225L42.6275 3.12138C43.5249 3.44688 44.0057 4.41474 43.722 5.32485C43.0674 7.42485 42.0839 10.8245 41.1157 15.094C41.0155 15.5359 41.2925 15.9752 41.7344 16.0754H41.7345C42.1766 16.1756 42.6156 15.8987 42.7159 15.4568C43.0854 13.8277 43.4862 12.1987 43.9077 10.6137C44.3522 9.90711 45.2258 9.60414 46.0217 9.89289L47.5631 10.4519C48.4605 10.7773 48.9413 11.7453 48.6577 12.6554C47.4278 16.601 46.3398 20.9032 45.5001 24.966C41.921 24.9931 41.6919 24.903 40.9037 25.0561C41.231 22.8815 41.6278 20.6512 42.0357 18.632C42.1314 18.1579 41.7979 17.7011 41.3105 17.6532C40.8964 17.6122 40.5111 17.891 40.4271 18.3073C39.9296 20.7725 39.4865 23.3428 39.1378 25.7851C38.3916 26.2854 37.8274 26.9651 37.4711 27.7063C37.435 27.5171 37.4179 27.3286 37.4216 27.1155C37.4324 26.5172 37.874 25.2314 36.9296 23.6625C36.117 22.3125 34.988 22.0189 34.5043 21.7138C35.5628 15.3906 37.1049 9.01625 38.779 3.70041ZM29.0107 3.3305L30.552 2.77149C31.5028 2.42674 32.5533 2.93861 32.8591 3.90964C33.3678 5.525 34.1394 8.12222 34.9488 11.3867C34.2813 14.1308 33.6926 16.9289 33.2197 19.5258C32.8413 18.4353 32.008 17.504 30.9008 17.0226C29.8344 12.0248 28.6943 8.03089 27.916 5.53397C27.6324 4.62386 28.1132 3.656 29.0107 3.3305ZM22.3715 8.05266L23.7943 7.23814C24.6702 6.73677 25.7938 7.05855 26.2623 7.96461C26.7621 8.93149 27.2736 9.95939 27.7829 11.0207C28.3015 12.9834 28.8008 15.0742 29.1444 16.6628C28.8262 16.6426 28.5404 16.5732 28.2869 16.4656C27.4691 16.1184 27.1523 15.4817 26.8864 15.1537C25.9949 14.0553 24.6224 13.4875 23.2441 13.6025C22.7171 12.4928 22.1888 11.4217 21.6702 10.4109C21.2349 9.5628 21.543 8.52702 22.3715 8.05266ZM19.0278 15.2137C18.9759 15.1947 18.9367 15.1746 18.9167 15.1633C18.9524 15.1828 18.9895 15.1997 19.0278 15.2137ZM12.8468 17.4462C12.8193 17.4526 12.7967 17.4562 12.7804 17.4584C12.8027 17.4553 12.8248 17.4513 12.8468 17.4462ZM1.89451 18.5602C1.50503 18.095 1.57185 17.3852 2.04501 17.0018C3.2127 16.0555 4.89335 15.6469 6.57237 15.9844C7.22501 16.1159 7.7557 15.4523 7.48237 14.8442C6.78981 13.3022 6.80873 11.5936 7.44518 10.2578C7.7266 9.66703 8.43196 9.43352 9.01045 9.73933C11.1661 10.88 12.3225 13.648 11.6742 16.0531C10.1344 16.6138 9.05321 18.0153 8.91737 19.6698C6.6847 21.0177 3.53021 20.5138 1.89451 18.5602ZM9.57165 23.0776C10.2526 22.2588 10.5987 21.2222 10.5461 20.1586C10.4829 18.8741 11.4086 17.6536 12.774 17.4593C14.59 17.2503 15.5796 15.7912 15.6171 15.766C16.3753 14.8436 17.7109 14.5002 18.9146 15.162C20.0035 15.7609 21.2876 15.8983 22.466 15.4721C22.6836 15.3961 22.7531 15.3599 22.9663 15.3073C24.0566 15.0331 25.1768 15.5059 25.7587 16.383C26.5398 17.5567 27.7301 18.2393 29.1105 18.305C29.2372 18.3148 29.463 18.3063 29.7706 18.374C30.6737 18.5741 31.4063 19.2466 31.6856 20.1125C31.7927 20.4429 31.9349 21.5274 32.8769 22.4916C33.3592 22.9867 33.7922 23.2179 34.3484 23.472C35.4269 23.9477 36.0505 25.0931 35.8649 26.2571C35.6473 27.6105 35.8573 28.8208 36.7477 29.8924C36.1855 30.954 35.0787 31.5954 33.9207 31.5954H23.2961C21.7437 31.5954 20.4196 30.4859 20.1478 28.9574C19.7366 26.6446 17.7332 24.966 15.3843 24.966H8.81718C8.80012 23.8173 9.51806 23.1671 9.57165 23.0776Z" fill="black"/>
</svg>
