<svg width="12" height="12" viewBox="0 0 12 12" fill="none" xmlns="http://www.w3.org/2000/svg">
<path fill-rule="evenodd" clip-rule="evenodd" d="M11.7046 0.295366C11.3108 -0.0984559 10.6723 -0.0984553 10.2785 0.295367L6 4.57384L1.72152 0.295368C1.3277 -0.0984541 0.689189 -0.0984544 0.295366 0.295368C-0.0984559 0.68919 -0.0984553 1.3277 0.295367 1.72153L4.57384 6L0.295379 10.2785C-0.0984429 10.6723 -0.0984432 11.3108 0.295379 11.7046C0.689202 12.0984 1.32771 12.0984 1.72154 11.7046L6 7.42616L10.2785 11.7046C10.6723 12.0984 11.3108 12.0984 11.7046 11.7046C12.0984 11.3108 12.0984 10.6723 11.7046 10.2785L7.42615 6L11.7046 1.72152C12.0985 1.3277 12.0985 0.689189 11.7046 0.295366Z" fill="black"/>
</svg>
