<svg width="80" height="80" viewBox="0 0 80 80" fill="none" xmlns="http://www.w3.org/2000/svg">
<path d="M47.5426 39.5493C47.5426 40.8761 46.4671 41.9516 45.1403 41.9516C43.8135 41.9516 42.7379 40.8761 42.7379 39.5493V41.893C42.7379 43.2198 41.6624 44.2953 40.3356 44.2953C39.0088 44.2953 37.9332 43.2198 37.9332 41.893V35.2738H22.4041L39.52 68.828L56.636 35.2738H47.5426V39.5493Z" fill="#FDA162"/>
<path d="M31.2594 21.3603C34.7219 21.3603 37.7647 23.1488 39.5206 25.8509C41.2754 23.1485 44.318 21.3603 47.7805 21.3603C48.3168 21.3603 48.8422 21.403 49.3553 21.4855C49.3625 21.3304 49.3673 21.1762 49.3673 21.0192C49.3673 15.5807 44.9585 11.1719 39.52 11.1719C34.0814 11.1719 29.6726 15.5807 29.6726 21.0192C29.6726 21.1762 29.6772 21.3304 29.6844 21.4855C30.1974 21.403 30.7231 21.3603 31.2594 21.3603Z" fill="#975D50"/>
<path d="M44.0513 18.3988C43.742 18.3988 43.4408 18.2734 43.2217 18.0554C43.1678 18.0015 43.1185 17.9418 43.0765 17.8773C43.0343 17.814 42.9979 17.7461 42.9687 17.6758C42.9394 17.6043 42.9171 17.5304 42.9019 17.4554C42.8866 17.3804 42.8784 17.3031 42.8784 17.2269C42.8784 17.1508 42.8866 17.0734 42.9019 16.9984C42.9171 16.9234 42.9394 16.8496 42.9687 16.7793C42.9979 16.7078 43.0343 16.6398 43.0765 16.5765C43.1185 16.5121 43.1678 16.4523 43.2217 16.3984C43.4396 16.1804 43.742 16.0551 44.0513 16.0551C44.3597 16.0551 44.6607 16.1804 44.8788 16.3984C44.9339 16.4523 44.9819 16.5121 45.0253 16.5765C45.0674 16.6398 45.1038 16.7078 45.1331 16.7793C45.1624 16.8496 45.1845 16.9234 45.1999 16.9984C45.2151 17.0734 45.2232 17.1508 45.2232 17.2269C45.2232 17.3031 45.2151 17.3804 45.1999 17.4554C45.1845 17.5304 45.1624 17.6043 45.1331 17.6758C45.1038 17.7461 45.0674 17.814 45.0253 17.8773C44.9819 17.9418 44.9339 18.0015 44.8788 18.0554C44.6608 18.2734 44.3597 18.3988 44.0513 18.3988Z" fill="black"/>
<path d="M33.7742 21.0192C33.7742 17.851 36.3517 15.2734 39.5199 15.2734C39.9464 15.2734 40.3622 15.3202 40.7625 15.4088" fill="#975D50"/>
<path d="M37.9417 30.8665C38.1218 25.5862 42.4562 21.3603 47.7804 21.3603C53.2189 21.3603 57.6277 25.7691 57.6277 31.2077C57.6277 33.3442 56.6359 35.2739 56.6359 35.2739H47.5425V39.5494C47.5425 40.8762 46.4669 41.9517 45.1401 41.9517C43.8133 41.9517 42.7378 40.8762 42.7378 39.5494V41.8931C42.7378 43.2199 41.6622 44.2955 40.3354 44.2955C39.0087 44.2955 37.9331 43.2199 37.9331 41.8931V30.8666L37.9417 30.8665Z" fill="#FDFA7B"/>
<path d="M37.9332 30.8665H37.9418C38.0048 29.0202 38.5771 27.3038 39.5206 25.8509C37.7649 23.1488 34.722 21.3603 31.2595 21.3603C25.8209 21.3603 21.4121 25.7691 21.4121 31.2076C21.4121 33.3442 22.404 35.2739 22.404 35.2739H37.9332V30.8665Z" fill="#FD7555"/>
<path d="M57.7889 17.1328C56.7535 16.0974 54.9419 16.5948 54.7865 16.4394C54.6503 16.3033 55.1746 14.5185 54.0926 13.4365C53.0402 12.3841 51.3127 12.3925 50.2052 13.3878C49.5797 13.9494 49.3195 14.5929 49.1799 15.272C48.9011 16.6285 49.2887 20.9531 49.7842 21.4487C50.2903 21.9547 54.5864 22.3283 55.9539 22.046C56.6356 21.9052 57.2762 21.646 57.838 21.0206C58.8332 19.9129 58.8416 18.1855 57.7889 17.1328Z" fill="#FD7555"/>
<path d="M55.4337 23.2877C55.7176 23.2684 55.9757 23.2381 56.1911 23.1935C56.8607 23.0551 57.8502 22.7605 58.7097 21.8037C60.1446 20.2065 60.1041 17.7908 58.6175 16.3042C57.8088 15.4955 56.7632 15.3115 55.9654 15.2839C55.9398 14.4891 55.748 13.4346 54.9211 12.6079C53.4343 11.1212 51.0189 11.0811 49.4221 12.5159C48.7786 13.0939 48.4354 13.7293 48.2372 14.2872C46.2201 11.6812 43.0628 10 39.5199 10C33.6061 10 28.7663 14.6829 28.512 20.5351C23.761 21.7589 20.2402 26.0799 20.2402 31.2076C20.2402 33.5776 21.295 35.6791 21.3595 35.8052C21.3597 35.8056 21.3598 35.8059 21.36 35.8064L38.476 69.3606C38.6761 69.753 39.0794 70 39.5199 70C39.9604 70 40.3636 69.753 40.5638 69.3606L57.6798 35.8064C57.6799 35.8062 57.68 35.8059 57.6802 35.8057C57.7433 35.6821 58.7997 33.5794 58.7997 31.2077C58.7997 28.1019 57.5078 25.2927 55.4337 23.2877ZM56.4559 31.2076C56.4559 32.3456 56.1188 33.441 55.8661 34.102H47.5425C46.8953 34.102 46.3707 34.6267 46.3707 35.2739V39.5492C46.3707 40.2278 45.8187 40.7797 45.1402 40.7797C44.4617 40.7797 43.9097 40.2278 43.9097 39.5492C43.9097 38.902 43.385 38.3774 42.7378 38.3774C42.0906 38.3774 41.566 38.902 41.566 39.5492V41.893C41.566 42.5715 41.014 43.1235 40.3355 43.1235C39.657 43.1235 39.105 42.5715 39.105 41.893V31.0096C39.1091 30.9757 39.112 30.9412 39.113 30.9064C39.1173 30.78 39.1255 30.6547 39.135 30.5299C39.1384 30.4859 39.1422 30.4418 39.1463 30.3977C39.1533 30.3207 39.1621 30.2442 39.1711 30.1678C39.3286 28.8588 39.7821 27.5995 40.5033 26.4892C40.5033 26.4891 40.5034 26.489 40.5034 26.4888C41.897 24.3429 44.1245 22.9468 46.6111 22.6113C46.6739 22.603 46.7369 22.5952 46.8 22.5881C46.8497 22.5825 46.8992 22.5765 46.949 22.5717C47.0636 22.561 47.1789 22.5526 47.2949 22.5463C47.3294 22.5444 47.3638 22.5429 47.3983 22.5415C47.5251 22.5361 47.6523 22.5321 47.7805 22.5321C47.9166 22.5321 48.0517 22.5362 48.1864 22.5424C48.227 22.5443 48.2674 22.5472 48.3081 22.5497C48.4064 22.5557 48.5044 22.5629 48.6018 22.5721C48.6413 22.5758 48.6806 22.5796 48.72 22.5838C48.8332 22.596 48.946 22.6103 49.0579 22.6268C49.0765 22.6295 49.0953 22.6317 49.1138 22.6347C53.2667 23.278 56.4559 26.8772 56.4559 31.2076ZM43.4385 58.5671L40.8355 53.4642L45.0614 45.1799L47.5362 50.0314C47.5769 50.1111 47.6273 50.1819 47.6821 50.2479L43.4385 58.5671ZM36.7612 39.7248V41.893C36.7612 43.8638 38.3647 45.4672 40.3354 45.4672C41.2802 45.4672 42.1391 45.0972 42.7789 44.4964L39.5199 50.8852L35.294 42.6009L36.7612 39.7248ZM33.9786 40.0219L32.1543 36.4457H35.8028L33.9786 40.0219ZM50.3278 15.5078C50.445 14.9372 50.6364 14.5756 50.9884 14.2594C51.6476 13.6671 52.6684 13.6697 53.264 14.2651C53.6876 14.6888 53.636 15.4845 53.6052 15.9598C53.5793 16.3598 53.5471 16.8573 53.9578 17.2682C54.3659 17.6761 54.8633 17.6543 55.3021 17.6353C55.7794 17.6145 56.5787 17.5798 56.9603 17.9615C57.5559 18.5571 57.5586 19.5781 56.9663 20.2374C56.6508 20.5886 56.2888 20.7801 55.717 20.8983C54.7446 21.0989 51.8826 20.8749 50.7865 20.6051C50.746 20.5936 50.7051 20.5831 50.6643 20.5719C50.3854 19.5785 50.1276 16.4819 50.3278 15.5078ZM30.8833 20.1947C31.2998 15.7962 35.0143 12.3437 39.5199 12.3437C44.0256 12.3437 47.7402 15.7962 48.1566 20.1947C48.1445 20.1944 48.1324 20.1945 48.1204 20.1941C48.0074 20.1907 47.8942 20.1884 47.7804 20.1884C47.6151 20.1884 47.4504 20.1929 47.2862 20.2002C47.2644 20.2012 47.2426 20.2017 47.2208 20.2028C47.0678 20.2105 46.9155 20.2218 46.7637 20.2357C46.731 20.2388 46.6984 20.2417 46.6657 20.2449C46.5205 20.2595 46.3759 20.2769 46.232 20.2971C46.1938 20.3025 46.1558 20.3083 46.1179 20.314C45.9774 20.3353 45.8372 20.3587 45.6981 20.3853C45.6594 20.3926 45.6211 20.4008 45.5827 20.4087C45.4575 20.434 45.3331 20.4611 45.2092 20.4907C45.1634 20.5016 45.1178 20.513 45.0722 20.5245C44.955 20.5541 44.8384 20.5858 44.7225 20.619C44.68 20.6313 44.6372 20.6429 44.5948 20.6557C44.4671 20.6942 44.3405 20.7356 44.2145 20.7785C44.1691 20.794 44.1236 20.8095 44.0782 20.8256C43.9524 20.8705 43.8273 20.9176 43.7034 20.9671C43.6622 20.9835 43.6212 21.0003 43.5802 21.0171C43.4513 21.0702 43.3233 21.1254 43.1966 21.1833C43.1665 21.197 43.1369 21.2114 43.1069 21.2254C42.9694 21.2897 42.8329 21.3563 42.6982 21.4263C42.6891 21.431 42.6802 21.4361 42.6712 21.4409C41.5925 22.0057 40.6087 22.7503 39.7622 23.6513C39.7546 23.6593 39.7469 23.6672 39.7393 23.6753C39.6652 23.7546 39.592 23.8348 39.5201 23.9165C39.5066 23.9011 39.4927 23.8863 39.4791 23.8711C39.4507 23.8392 39.422 23.8078 39.3934 23.7763C39.3493 23.7278 39.3046 23.6796 39.2597 23.632C39.2301 23.6006 39.2003 23.5693 39.1702 23.5383C39.124 23.4906 39.0774 23.4435 39.0304 23.3966C39.0013 23.3676 38.9724 23.3385 38.9431 23.3098C38.8895 23.2576 38.8354 23.2063 38.7809 23.1553C38.7576 23.1335 38.7347 23.1113 38.7113 23.0896C38.6338 23.0182 38.5554 22.948 38.476 22.879C38.4562 22.8618 38.4358 22.8451 38.4157 22.828C38.3552 22.7761 38.2942 22.7245 38.2325 22.674C38.2018 22.6488 38.1707 22.6244 38.1398 22.5996C38.0876 22.5579 38.0354 22.5164 37.9826 22.4756C37.9489 22.4496 37.9149 22.4238 37.8808 22.3983C37.8293 22.3595 37.7775 22.3212 37.7254 22.2833C37.6909 22.2583 37.6565 22.2334 37.6217 22.2087C37.5675 22.1704 37.5129 22.1327 37.4582 22.0954C37.4253 22.073 37.3926 22.0503 37.3594 22.0282C37.2951 21.9853 37.2302 21.9436 37.165 21.9021C37.1411 21.8869 37.1175 21.8712 37.0935 21.8562C37.0048 21.8008 36.9153 21.7466 36.8252 21.6938C36.8 21.6791 36.7745 21.6651 36.7492 21.6505C36.683 21.6124 36.6166 21.5747 36.5497 21.538C36.5147 21.5189 36.4796 21.5004 36.4445 21.4818C36.3861 21.4506 36.3274 21.4197 36.2684 21.3895C36.2309 21.3703 36.1932 21.3516 36.1554 21.3328C36.0973 21.304 36.039 21.2758 35.9804 21.248C35.9426 21.2301 35.9048 21.2121 35.8668 21.1947C35.8053 21.1663 35.7434 21.1389 35.6813 21.1117C35.6464 21.0963 35.6115 21.0808 35.5764 21.0658C35.4995 21.0331 35.4222 21.0015 35.3446 20.9706C35.3241 20.9624 35.3038 20.9537 35.2833 20.9458C35.1855 20.9074 35.087 20.8706 34.988 20.835C34.9758 20.8306 34.9635 20.8263 34.9512 20.822C35.0548 18.3912 37.064 16.4453 39.5199 16.4453C39.8538 16.4453 40.1867 16.4815 40.5094 16.5529C41.1409 16.6929 41.7668 16.2939 41.9068 15.6619C42.0466 15.03 41.6477 14.4044 41.0158 14.2646C40.527 14.1564 40.0237 14.1016 39.5199 14.1016C35.957 14.1016 33.0156 16.8092 32.643 20.2746C32.6184 20.2716 32.5934 20.2694 32.5688 20.2664C32.5012 20.2583 32.4335 20.2508 32.3656 20.244C32.3235 20.2398 32.2815 20.236 32.2393 20.2322C32.1718 20.2262 32.104 20.221 32.0363 20.2163C31.9952 20.2135 31.954 20.2104 31.9128 20.2079C31.8393 20.2036 31.7656 20.2004 31.6919 20.1975C31.6569 20.1961 31.6218 20.1944 31.5868 20.1933C31.478 20.1901 31.3689 20.1881 31.2596 20.1881C31.1458 20.1881 31.0325 20.1905 30.9196 20.1939C30.9074 20.1945 30.8954 20.1944 30.8833 20.1947ZM29.9276 22.6344C29.9445 22.6319 29.9615 22.6297 29.9785 22.6273C30.0917 22.6104 30.2057 22.5961 30.3203 22.5837C30.3596 22.5795 30.3988 22.5756 30.4382 22.572C30.5356 22.5628 30.6335 22.5554 30.7318 22.5496C30.7724 22.5471 30.8131 22.5442 30.8539 22.5423C30.9884 22.5361 31.1235 22.532 31.2596 22.532C31.3482 22.532 31.4364 22.5335 31.5245 22.5361C31.5538 22.537 31.583 22.5387 31.6122 22.5399C31.6709 22.5422 31.7296 22.5445 31.7881 22.5482C31.8228 22.5503 31.8572 22.5532 31.8918 22.5557C31.9449 22.5595 31.9979 22.5634 32.0507 22.5681C32.087 22.5714 32.1233 22.5754 32.1596 22.5791C32.2104 22.5844 32.2612 22.5898 32.3117 22.5959C32.3487 22.6003 32.3856 22.6054 32.4227 22.6103C32.4722 22.617 32.5218 22.6239 32.5713 22.6314C32.6084 22.637 32.6454 22.643 32.6824 22.6491C32.7315 22.6572 32.7806 22.6657 32.8294 22.6746C32.8661 22.6813 32.9027 22.6882 32.9392 22.6954C32.9885 22.7051 33.0376 22.7153 33.0865 22.7257C33.1222 22.7333 33.1578 22.7411 33.1933 22.749C33.2435 22.7604 33.2934 22.7726 33.3433 22.7849C33.3772 22.7932 33.4111 22.8014 33.4449 22.8102C33.4969 22.8237 33.5487 22.8381 33.6004 22.8525C33.6316 22.8613 33.663 22.8696 33.694 22.8786C33.7509 22.8953 33.8075 22.9129 33.8638 22.9306C33.8893 22.9385 33.9149 22.946 33.9402 22.9544C34.016 22.979 34.0913 23.0045 34.1662 23.0311C34.172 23.0332 34.178 23.0351 34.1839 23.0371C34.2658 23.0664 34.3471 23.0968 34.428 23.1286C34.4451 23.1353 34.462 23.1426 34.4791 23.1495C34.5417 23.1744 34.6041 23.1999 34.6661 23.2262C34.692 23.2374 34.7177 23.249 34.7436 23.2603C34.7963 23.2834 34.8489 23.3066 34.9012 23.3309C34.93 23.3442 34.9586 23.3582 34.9873 23.3718C35.0361 23.395 35.0848 23.4183 35.1331 23.4426C35.163 23.4574 35.1925 23.4728 35.2222 23.488C35.2689 23.512 35.3156 23.5363 35.3618 23.5613C35.392 23.5774 35.4218 23.5938 35.4517 23.6104C35.4971 23.6354 35.5422 23.6609 35.5872 23.6868C35.6171 23.704 35.6468 23.7213 35.6765 23.739C35.721 23.7654 35.7653 23.7924 35.8095 23.8195C35.8386 23.8375 35.8676 23.8554 35.8965 23.8737C35.9411 23.9019 35.9853 23.9308 36.0295 23.9599C36.057 23.9781 36.0847 23.9963 36.1121 24.0148C36.1574 24.0455 36.2023 24.0769 36.2471 24.1084C36.2725 24.1263 36.2982 24.144 36.3235 24.1623C36.3713 24.1968 36.4186 24.2322 36.4657 24.2677C36.4873 24.2838 36.509 24.2997 36.5303 24.3161C36.5873 24.3598 36.6436 24.4045 36.6997 24.4497C36.7107 24.4586 36.7219 24.467 36.7328 24.476C36.8006 24.5312 36.8676 24.5876 36.9338 24.6449C36.9412 24.6513 36.9483 24.658 36.9557 24.6645C37.0132 24.7147 37.0702 24.7656 37.1266 24.8174C37.1464 24.8357 37.1657 24.8544 37.1853 24.8728C37.2286 24.9135 37.2719 24.9543 37.3144 24.9959C37.3376 25.0185 37.3604 25.0417 37.3833 25.0647C37.4215 25.1029 37.4597 25.1413 37.4974 25.1803C37.5217 25.2056 37.5457 25.2313 37.5698 25.257C37.6053 25.2946 37.6406 25.3324 37.6754 25.3709C37.7 25.3979 37.7242 25.4254 37.7485 25.4528C37.782 25.4906 37.8153 25.5287 37.8482 25.5673C37.8726 25.5958 37.8966 25.6245 37.9206 25.6533C37.9527 25.6918 37.9845 25.7308 38.016 25.7699C38.0397 25.7994 38.0634 25.8291 38.0868 25.859C38.0986 25.8741 38.1102 25.8895 38.122 25.9048C37.6268 26.805 37.2609 27.7706 37.0349 28.7782C37.0249 28.8226 37.0156 28.8673 37.0061 28.9118C36.9808 29.0316 36.9571 29.1517 36.9358 29.2725C36.9208 29.3564 36.9067 29.4405 36.8937 29.5248C36.8849 29.5825 36.8759 29.64 36.8681 29.6978C36.8494 29.8329 36.8334 29.9684 36.8198 30.1042C36.816 30.1419 36.8129 30.1799 36.8095 30.2177C36.7959 30.3697 36.7843 30.5221 36.7769 30.6749C36.7667 30.7372 36.7613 30.8013 36.7613 30.8666V34.102H23.1738C22.9209 33.4404 22.584 32.3454 22.584 31.2076C22.584 26.8767 25.7739 23.2772 29.9276 22.6344ZM29.5232 36.4457L32.663 42.6008L30.0601 47.7036L24.3173 36.4455L29.5232 36.4457ZM39.5199 66.2491L31.3577 50.2479C31.4125 50.182 31.463 50.1111 31.5036 50.0314L33.9785 45.1799L38.2043 53.4642L36.8891 56.0425C36.595 56.619 36.824 57.3248 37.4006 57.6189C37.5711 57.7059 37.7529 57.7471 37.9321 57.7471C38.3586 57.7471 38.7698 57.5135 38.977 57.1075L39.5199 56.0432L42.1228 61.1462L39.5199 66.2491ZM48.9798 47.7037L46.505 42.8519C47.8005 42.3145 48.7143 41.0368 48.7143 39.5491V36.4457H54.7225L48.9798 47.7037Z" fill="black"/>
</svg>
