<svg width="56" height="56" viewBox="0 0 56 56" fill="none" xmlns="http://www.w3.org/2000/svg">
<g clip-path="url(#clip0)">
<path d="M27.9999 2.49762C13.6066 2.49762 1.93848 14.1657 1.93848 28.5591C1.93848 42.9524 13.6066 54.6205 27.9999 54.6205C42.3932 54.6205 54.0614 42.9524 54.0614 28.5591C54.0614 14.1657 42.3932 2.49762 27.9999 2.49762ZM27.9999 37.7517C22.9229 37.7517 18.8073 33.636 18.8073 28.5591C18.8073 23.4821 22.9229 19.3664 27.9999 19.3664C33.0769 19.3664 37.1926 23.4821 37.1926 28.5591C37.1926 33.636 33.0769 37.7517 27.9999 37.7517Z" fill="#FFCA8A"/>
<path d="M6.48104 25.9604C6.48104 18.8835 8.9481 12.3686 13.0887 7.18436C6.34826 11.8952 1.93848 19.7116 1.93848 28.5591C1.93848 42.5426 12.9519 53.9526 26.7775 54.5911C14.9153 50.2142 6.48104 39.0476 6.48104 25.9604Z" fill="#FFBE73"/>
<path d="M47.2183 9.34077C42.0851 4.20649 35.2594 1.37936 28 1.37936C20.7406 1.37936 13.9149 4.20649 8.78172 9.34077C3.64744 14.474 0.820312 21.2996 0.820312 28.5591C0.820312 28.6671 0.820969 28.7752 0.822172 28.883C0.84 30.4228 1.6753 31.8367 3.02028 32.5866L3.75791 32.9978C5.05433 33.7206 6.6325 33.7206 7.92892 32.9978L8.63013 32.6069C9.92655 31.8842 11.5047 31.8842 12.8011 32.6069L13.5023 32.9978C14.7988 33.7206 16.3766 33.7208 17.673 32.998C17.6972 32.9846 17.7215 32.971 17.7458 32.9575C19.1651 32.1661 20.0298 30.6388 19.938 29.0165C19.9294 28.8651 19.9251 28.7126 19.9251 28.5591C19.9251 23.9761 23.7629 20.2726 28.3935 20.4936C32.4432 20.687 35.7537 23.912 36.0524 27.9554C36.0773 28.2931 36.0812 28.6266 36.0651 28.955C35.9846 30.6003 36.8155 32.1555 38.2543 32.9576C38.2785 32.9711 38.3028 32.9846 38.3269 32.998C39.6233 33.7208 41.2011 33.7207 42.4975 32.9978L43.1987 32.6069C44.4952 31.8842 46.0733 31.8842 47.3698 32.6069L48.071 32.9978C49.3674 33.7206 50.9456 33.7206 52.242 32.9978L52.9796 32.5866C54.3246 31.8367 55.1599 30.4227 55.1777 28.883C55.1789 28.7751 55.1796 28.6671 55.1796 28.5591C55.1797 21.2996 52.3526 14.474 47.2183 9.34077Z" fill="#E27858"/>
<path d="M21.0648 44.8089C21.0684 43.0262 19.2565 41.5773 17.0178 41.5728C14.7792 41.5684 12.9615 43.0099 12.9579 44.7927C12.9544 46.5755 14.7663 48.0243 17.0049 48.0288C19.2436 48.0333 21.0612 46.5917 21.0648 44.8089Z" fill="#FF8997"/>
<path d="M43.0317 44.8571C43.0352 43.0743 41.2233 41.6254 38.9847 41.621C36.746 41.6165 34.9284 43.0581 34.9248 44.8408C34.9212 46.6236 36.7331 48.0724 38.9718 48.0769C41.2104 48.0814 43.0281 46.6398 43.0317 44.8571Z" fill="#FF8997"/>
<path d="M8.42827 26.676C7.66429 25.9121 7.66429 24.6735 8.42827 23.9094L10.882 21.4557C11.646 20.6917 12.8845 20.6917 13.6486 21.4557C14.4126 22.2197 14.4126 23.4582 13.6486 24.2223L11.1949 26.676C10.431 27.4399 9.19237 27.44 8.42827 26.676Z" fill="#F9ED80"/>
<path d="M47.5718 26.676C48.3358 25.9121 48.3358 24.6735 47.5718 23.9094L45.1181 21.4557C44.3541 20.6917 43.1155 20.6917 42.3514 21.4557C41.5874 22.2197 41.5874 23.4582 42.3514 24.2223L44.8051 26.676C45.569 27.4399 46.8077 27.44 47.5718 26.676Z" fill="#FFB3DD"/>
<path d="M25.3899 11.2403C24.6259 10.4764 24.6259 9.23779 25.3899 8.4737L27.8436 6.01998C28.6076 5.25599 29.8462 5.25599 30.6102 6.01998C31.3742 6.78396 31.3742 8.02253 30.6102 8.78662L28.1564 11.2403C27.3925 12.0042 26.154 12.0043 25.3899 11.2403Z" fill="#9AE0EB"/>
<path d="M18.7807 16.5881C18.0167 17.352 16.7782 17.352 16.0141 16.5881L13.5604 14.1343C12.7964 13.3704 12.7964 12.1318 13.5604 11.3677C14.3243 10.6037 15.5629 10.6037 16.327 11.3677L18.7807 13.8214C19.5447 14.5854 19.5447 15.824 18.7807 16.5881Z" fill="#60D9A7"/>
<path d="M37.2193 16.5881C37.9833 17.352 39.2219 17.352 39.986 16.5881L42.4397 14.1343C43.2037 13.3704 43.2037 12.1318 42.4397 11.3677C41.6757 10.6037 40.4372 10.6037 39.6731 11.3677L37.2193 13.8214C36.4554 14.5854 36.4554 15.824 37.2193 16.5881Z" fill="#F9ED80"/>
<path d="M6.48112 25.9604C6.48112 17.5062 10.0004 9.85267 15.6898 4.31326C13.1694 5.59634 10.8394 7.28268 8.78172 9.34079C3.64744 14.474 0.820312 21.2997 0.820312 28.5591C0.820312 28.6671 0.820969 28.7752 0.822172 28.883C0.84 30.4228 1.6753 31.8367 3.02028 32.5866L3.75791 32.9978C4.87659 33.6216 6.20484 33.7057 7.38106 33.253C6.79448 30.9157 6.48112 28.4739 6.48112 25.9604Z" fill="#DC6742"/>
<path d="M18.5955 40.7597V42.407C18.5955 42.8601 18.9627 43.2273 19.4158 43.2273C19.8688 43.2273 20.2361 42.8601 20.2361 42.407V40.7597C20.2361 40.3067 19.8688 39.9394 19.4158 39.9394C18.9627 39.9394 18.5955 40.3067 18.5955 40.7597Z" fill="black"/>
<path d="M35.7401 40.7597V42.407C35.7401 42.8601 36.1073 43.2273 36.5604 43.2273C37.0134 43.2273 37.3807 42.8601 37.3807 42.407V40.7597C37.3807 40.3067 37.0134 39.9394 36.5604 39.9394C36.1073 39.9394 35.7401 40.3067 35.7401 40.7597Z" fill="black"/>
<path d="M31.1615 43.3891C31.1615 44.0309 30.6393 44.5532 29.9974 44.5532C29.3555 44.5532 28.8335 44.031 28.8335 43.3891C28.8335 42.9361 28.4662 42.5688 28.0131 42.5688C27.5601 42.5688 27.1928 42.9361 27.1928 43.3891C27.1928 44.0309 26.6707 44.5532 26.0288 44.5532C25.3868 44.5532 24.8647 44.031 24.8647 43.3891C24.8647 42.9361 24.4974 42.5688 24.0444 42.5688C23.5913 42.5688 23.2241 42.9361 23.2241 43.3891C23.2241 44.9357 24.4822 46.1938 26.0288 46.1938C26.803 46.1938 27.5051 45.8784 28.013 45.3692C28.5211 45.8784 29.223 46.1938 29.9973 46.1938C31.5438 46.1938 32.802 44.9357 32.802 43.3891C32.802 42.9361 32.4347 42.5688 31.9817 42.5688C31.5287 42.5688 31.1615 42.9361 31.1615 43.3891Z" fill="black"/>
<path d="M11.775 27.2579L14.2287 24.8042C15.3113 23.7216 15.3113 21.9601 14.2287 20.8775C13.1461 19.7951 11.3846 19.7951 10.302 20.8775L7.84832 23.3313C6.76573 24.4138 6.76573 26.1753 7.84832 27.2579C8.93081 28.3402 10.6924 28.3406 11.775 27.2579ZM9.00835 24.4913L11.4621 22.0376C11.905 21.5946 12.6257 21.5948 13.0686 22.0376C13.5114 22.4805 13.5114 23.2012 13.0686 23.6441L10.6149 26.0978C10.1721 26.5406 9.45143 26.5408 9.00835 26.0978C8.56549 25.6548 8.56549 24.9343 9.00835 24.4913Z" fill="black"/>
<path d="M41.7712 24.8042L44.2249 27.2579C45.3075 28.3405 47.0689 28.3405 48.1516 27.2579C49.2342 26.1753 49.2342 24.4138 48.1516 23.3313L45.6979 20.8775C44.6154 19.7951 42.8539 19.7951 41.7712 20.8775C40.6886 21.9601 40.6886 23.7216 41.7712 24.8042ZM43.7345 21.7055C44.0253 21.7055 44.3163 21.8162 44.5378 22.0377L46.9915 24.4914C47.4343 24.9342 47.4343 25.6549 46.9915 26.0979C46.5485 26.5409 45.8278 26.5407 45.385 26.0979L42.9313 23.6442C42.215 22.9278 42.7294 21.7055 43.7345 21.7055Z" fill="black"/>
<path d="M28.7363 11.8223L31.1901 9.3686C32.2725 8.28601 32.2725 6.52463 31.19 5.44193C30.1074 4.35944 28.3459 4.35944 27.2634 5.44193L24.8095 7.89576C23.7271 8.97824 23.7271 10.7398 24.8095 11.8223C24.8095 11.8223 24.8095 11.8223 24.8096 11.8224C25.8922 12.9047 27.6538 12.9049 28.7363 11.8223ZM25.9697 9.05568L28.4234 6.60196C28.8662 6.1591 29.5869 6.1591 30.0299 6.60196C30.4727 7.04493 30.4727 7.7656 30.0299 8.20846L27.5762 10.6622C27.1332 11.1051 26.4126 11.105 25.9696 10.6622C25.5269 10.2192 25.5269 9.49865 25.9697 9.05568Z" fill="black"/>
<path d="M19.3606 17.17C19.3606 17.1699 19.3607 17.1699 19.3606 17.17C20.4431 16.0873 20.4431 14.3259 19.3606 13.2434L16.9069 10.7896C15.8244 9.70727 14.063 9.70705 12.9802 10.7896C11.8977 11.8722 11.8977 13.6338 12.9802 14.7163L15.4339 17.17C16.5164 18.2524 18.278 18.2526 19.3606 17.17ZM14.9436 11.6175C15.2344 11.6175 15.5254 11.7282 15.7468 11.9497L18.2006 14.4034C18.6434 14.8463 18.6434 15.567 18.2006 16.0099C17.7576 16.4529 17.0369 16.4528 16.5941 16.0099L14.1403 13.5562C13.4239 12.8398 13.9383 11.6175 14.9436 11.6175Z" fill="black"/>
<path d="M39.093 10.7896L36.6393 13.2433C35.5568 14.3258 35.5568 16.0873 36.6393 17.17C37.7216 18.2523 39.4832 18.2525 40.5659 17.17L43.0196 14.7162C44.1021 13.6338 44.1022 11.8722 43.0196 10.7896C41.937 9.70708 40.1756 9.70697 39.093 10.7896ZM41.8596 13.5562L39.4059 16.0099C38.963 16.4528 38.2424 16.4529 37.7994 16.0099C37.3564 15.567 37.3564 14.8463 37.7994 14.4034L40.2531 11.9497C40.696 11.5068 41.4166 11.5068 41.8596 11.9497C42.3025 12.3927 42.3025 13.1132 41.8596 13.5562Z" fill="black"/>
<path d="M18.5864 2.17629C18.1596 2.32821 17.9368 2.79743 18.0887 3.22421C18.2408 3.65099 18.7099 3.8739 19.1366 3.72187C36.2954 -2.38771 54.565 10.396 54.3576 28.8755C54.3431 30.1219 53.6556 31.2727 52.5802 31.872C52.1659 32.0372 51.0324 33.066 49.2943 32.6145C48.6562 32.4487 48.3191 32.1795 47.7693 31.8924C46.2133 31.0248 44.3555 31.0248 42.7993 31.8924L42.0981 32.2833C39.7206 33.6086 36.7476 31.7902 36.8844 28.997C37.1261 24.0507 33.2999 19.9086 28.4326 19.6763C23.1632 19.4249 18.8197 23.7817 19.119 29.0648C19.2501 31.3781 16.9801 33.2005 14.7255 32.6145C14.0875 32.4486 13.7504 32.1795 13.2006 31.8924C11.6447 31.0248 9.78683 31.0248 8.23064 31.8924C7.67874 32.1806 7.34372 32.4486 6.70563 32.6145C4.9635 33.0666 3.83071 32.0359 3.41967 31.872C2.36464 31.2834 1.6571 30.1449 1.64233 28.8756C1.52464 18.3736 7.48821 9.45027 15.9799 5.08884C16.3829 4.88179 16.5418 4.38731 16.3348 3.98426C16.1278 3.58132 15.6334 3.42229 15.2303 3.62934C6.21836 8.25787 -0.126811 17.7321 0.00192368 28.8945C0.0169081 30.1896 0.524736 31.4123 1.38344 32.3327C2.27069 38.6457 5.39061 44.4487 10.1923 48.6983C15.1065 53.0476 21.4308 55.4428 28 55.4428C32.6715 55.4428 37.2741 54.2245 41.3102 51.9195C41.7037 51.6948 41.8405 51.1938 41.6157 50.8004C41.3911 50.4069 40.8901 50.2702 40.4966 50.4949C36.7077 52.6585 32.3866 53.8022 27.9998 53.8022C21.8315 53.8022 15.8935 51.5532 11.2794 47.4698C7.17069 43.8335 4.37211 38.9871 3.27727 33.6713L3.35821 33.7164C4.92719 34.591 6.78481 34.5769 8.32821 33.7164C8.70096 33.5697 9.8495 32.5454 11.5777 32.9944C12.1533 33.1441 12.4922 33.3781 13.1026 33.7164C15.7821 35.2103 18.1141 33.6842 18.1452 33.6761C18.4792 33.4824 18.7408 33.3073 19.0433 33.0391C20.7197 36.3983 24.1657 38.5741 27.9997 38.5741C31.8352 38.5741 35.28 36.399 36.9561 33.0394C38.5748 34.4727 40.922 34.8175 42.8969 33.7164C43.4852 33.4017 43.7281 33.2155 44.2098 33.0569C46.1507 32.4728 47.2086 33.5433 47.6714 33.7164C50.3699 35.2209 52.6746 33.6833 52.7235 33.6706C52.1686 36.3787 51.1747 38.958 49.7588 41.3594C48.0688 44.2255 45.8637 46.6982 43.2045 48.7084C42.8431 48.9816 42.7716 49.4961 43.0448 49.8573C43.318 50.2188 43.8325 50.2902 44.1939 50.017C47.025 47.8768 49.3728 45.2443 51.172 42.1927C52.9686 39.1457 54.1253 35.8296 54.6159 32.3331C55.4748 31.4127 55.9829 30.1897 55.9979 28.8943C56.0856 21.3 53.1722 14.1356 47.7981 8.76263C39.7838 0.74643 28.2966 -1.28116 18.5864 2.17629ZM28 36.9333C24.5233 36.9333 21.4284 34.7933 20.1885 31.5721C20.9102 30.1915 20.7456 29.0917 20.7456 28.5609C20.7456 24.4523 24.1777 21.1151 28.3545 21.3148C32.3256 21.5045 35.4436 24.8847 35.2458 28.9166C35.1996 29.8626 35.4031 30.7717 35.8132 31.5676C34.5742 34.7918 31.4796 36.9333 28 36.9333Z" fill="black"/>
</g>
<defs>
<clipPath id="clip0">
<rect width="56" height="56" fill="white"/>
</clipPath>
</defs>
</svg>
