<svg width="54" height="54" viewBox="0 0 54 54" fill="none" xmlns="http://www.w3.org/2000/svg">
<path d="M38.6427 13.231L9.12305 13.2891V48.7266C9.12305 51.0564 11.012 52.9453 13.3418 52.9453H34.4355C36.7654 52.9453 38.6543 51.0564 38.6543 48.7266V13.2521L38.6427 13.231Z" fill="#95E7EE"/>
<path d="M38.6543 48.7266V13.2521L38.6427 13.231L9.12305 13.2891V48.7266H38.6543Z" fill="#FEC652"/>
<path d="M49.2012 22.2539V40.2891C49.2012 42.6189 47.3122 44.5078 44.9824 44.5078H38.6543V40.2891H44.9824V22.2539H38.6543V18.0352H44.9824C47.3122 18.0352 49.2012 19.9241 49.2012 22.2539Z" fill="#95E7EE"/>
<path d="M40.6529 8.61785C41.4555 12.1798 37.7813 15.0297 34.3301 13.2743V22.179C34.3301 23.3434 33.3861 24.2884 32.2207 24.2884C31.0553 24.2884 30.1113 23.3434 30.1113 22.179V17.9603C30.1113 16.5037 30.1641 13.8164 25.4707 13.8164C25.09 13.8164 24.7261 13.9704 24.4624 14.2436C23.5037 15.235 22.16 15.8509 20.6719 15.8509C19.2322 15.8509 17.9276 15.274 16.9763 14.3385C16.6356 14.0041 16.1768 13.8164 15.6769 13.8164C15.275 13.8164 14.908 14.0453 14.7319 14.406C13.713 16.4921 11.5963 17.9392 9.12305 17.9603V26.3746C9.07031 27.5621 8.12637 28.5071 6.96094 28.5071C5.79551 28.5071 4.79883 27.5621 4.79883 26.3978C4.79883 25.0175 4.79883 15.2053 4.79883 13.7415C4.79883 8.72437 9.22957 4.73027 14.3712 5.38945C15.8108 2.8234 18.5657 1.05469 21.7266 1.05469C24.2262 1.05469 26.4716 2.1716 28.0167 3.89918C28.6538 3.49629 29.4089 3.26953 30.2168 3.26953C32.0572 3.26953 33.6224 4.44762 34.1982 6.09082C35.1042 5.48332 36.2591 5.21754 37.4773 5.4791C39.0255 5.81027 40.3059 7.07379 40.6529 8.61785Z" fill="#FFE5CB"/>
<path d="M30.1641 47.597C29.5819 47.597 29.1094 48.0695 29.1094 48.6516C29.1094 49.2338 29.5819 49.7063 30.1641 49.7063C30.7463 49.7063 31.2188 49.2338 31.2188 48.6516C31.2188 48.0695 30.7463 47.597 30.1641 47.597Z" fill="black"/>
<path d="M15.3457 21.1244C14.7632 21.1244 14.291 21.5965 14.291 22.179V42.3236C14.291 42.9061 14.7632 43.3783 15.3457 43.3783C15.9282 43.3783 16.4004 42.9061 16.4004 42.3236V22.179C16.4004 21.5965 15.9282 21.1244 15.3457 21.1244Z" fill="black"/>
<path d="M23.7832 21.1244C23.2007 21.1244 22.7285 21.5965 22.7285 22.179V42.3236C22.7285 42.9061 23.2007 43.3783 23.7832 43.3783C24.3657 43.3783 24.8379 42.9061 24.8379 42.3236V22.179C24.8379 21.5965 24.3657 21.1244 23.7832 21.1244Z" fill="black"/>
<path d="M13.3418 54H34.4355C37.3433 54 39.709 51.6343 39.709 48.7266V45.5625H44.9824C47.8902 45.5625 50.2559 43.1968 50.2559 40.2891V22.2539C50.2559 19.3461 47.8902 16.9805 44.9824 16.9805H39.709V13.7891C41.3622 12.5497 42.1479 10.4549 41.682 8.38656C41.2461 6.44699 39.6451 4.86411 37.6986 4.44783C36.6639 4.22582 35.6218 4.30439 34.6722 4.66541C33.72 3.16427 32.0479 2.21484 30.2168 2.21484C29.5266 2.21484 28.8521 2.34868 28.2285 2.60624C26.4632 0.940992 24.1358 0 21.7266 0C18.5397 0 15.5676 1.62348 13.8132 4.27982C8.30039 3.9748 3.74414 8.34848 3.74414 13.7415V26.3978C3.74414 28.1424 5.18716 29.5618 6.96094 29.5618C7.35001 29.5618 7.72284 29.4911 8.06836 29.3622V48.7266C8.06836 51.6343 10.434 54 13.3418 54ZM34.4355 51.8906H13.3418C11.9669 51.8906 10.7945 51.0088 10.3591 49.7812H25.9464C26.5289 49.7812 27.0011 49.3091 27.0011 48.7266C27.0011 48.1441 26.5289 47.6719 25.9464 47.6719H10.1777V26.3746V18.9323C12.5469 18.5746 14.5984 17.0826 15.6769 14.8712C15.8969 14.8712 16.0907 14.9473 16.2368 15.0907C17.4271 16.2612 19.0022 16.9057 20.6719 16.9057C22.4024 16.9057 24.0179 16.2207 25.2213 14.9761C25.2856 14.9095 25.3766 14.8712 25.4707 14.8712C27.1125 14.8712 28.1868 15.2219 28.664 15.9133C29.0573 16.4834 29.057 17.2755 29.0566 17.912V22.1791C29.0566 23.554 29.9385 24.7264 31.166 25.1618V42.3237C31.166 42.9062 31.6382 43.3783 32.2207 43.3783C32.8032 43.3783 33.2754 42.9062 33.2754 42.3237V25.1617C34.5029 24.7263 35.3848 23.554 35.3848 22.179V14.7473C36.1236 14.8947 36.8776 14.8957 37.5996 14.748V47.6719H34.3818C33.7993 47.6719 33.3271 48.1441 33.3271 48.7266C33.3271 49.3091 33.7993 49.7707 34.3818 49.7707H37.4182C36.9828 50.9983 35.8104 51.8906 34.4355 51.8906ZM39.709 23.3086H43.9277V39.2344H39.709V23.3086ZM44.9824 19.0898C46.7271 19.0898 48.1465 20.5092 48.1465 22.2539V40.2891C48.1465 42.0337 46.7271 43.4531 44.9824 43.4531H39.709V41.3438H44.9824C45.5649 41.3438 46.0371 40.8716 46.0371 40.2891V22.2539C46.0371 21.6714 45.5649 21.1992 44.9824 21.1992H39.709V19.0898H44.9824ZM6.96094 27.4525C6.36071 27.4525 5.85352 26.9694 5.85352 26.3978V13.7415C5.85352 9.67085 9.18443 6.37432 13.2793 6.37432C13.5975 6.37432 13.9173 6.39457 14.237 6.4356C14.6636 6.49034 15.0806 6.28045 15.291 5.90551C16.6047 3.564 19.0706 2.10938 21.7266 2.10938C23.8075 2.10938 25.8137 3.01799 27.2307 4.60234C27.5741 4.98646 28.1449 5.06619 28.5806 4.7906C29.0629 4.48548 29.6287 4.32422 30.2168 4.32422C31.5594 4.32422 32.7594 5.1744 33.2029 6.43961C33.3108 6.74757 33.5553 6.98836 33.865 7.09151C34.1745 7.19466 34.5145 7.14867 34.7856 6.96684C35.5045 6.48485 36.3818 6.32275 37.2566 6.51048C38.3957 6.75411 39.3692 7.71578 39.624 8.84967C40.2243 11.5142 37.493 13.7 34.8082 12.3343C34.4812 12.1679 34.0914 12.1834 33.7786 12.3753C33.4659 12.567 33.2753 12.9075 33.2753 13.2743V22.179C33.2753 22.7606 32.8022 23.2337 32.2206 23.2337C31.639 23.2337 31.1659 22.7606 31.1659 22.179V17.9126C31.1662 17.0819 31.1668 15.8265 30.4001 14.7153C29.5058 13.419 27.8473 12.7617 25.4707 12.7617C24.8073 12.7617 24.1633 13.0348 23.7042 13.5104C22.9024 14.3396 21.8255 14.7962 20.6719 14.7962C19.5589 14.7962 18.509 14.3666 17.7151 13.5857C17.1737 13.0543 16.4499 12.7617 15.6769 12.7617C14.8775 12.7617 14.1346 13.2255 13.7841 13.9432C12.9001 15.7534 11.1105 16.8886 9.11398 16.9057C8.53506 16.9106 8.06825 17.3814 8.06825 17.9604V26.3478C8.03113 26.9689 7.54819 27.4525 6.96094 27.4525Z" fill="black"/>
</svg>
